solid prism
  facet normal 0 0 -1
    outer loop
      vertex 6.12323e-17 1 0
      vertex 1 0 0
      vertex 0 0 0
    endloop
  endfacet
  facet normal 0 0 -1
    outer loop
      vertex -1 1.22465e-16 0
      vertex 6.12323e-17 1 0
      vertex 0 0 0
    endloop
  endfacet
  facet normal 0 0 -1
    outer loop
      vertex -1.83697e-16 -1 0
      vertex -1 1.22465e-16 0
      vertex 0 0 0
    endloop
  endfacet
  facet normal 0 0 -1
    outer loop
      vertex 1 -2.44929e-16 0
      vertex -1.83697e-16 -1 0
      vertex 0 0 0
    endloop
  endfacet
  facet normal 0.707107 0.707107 0
    outer loop
      vertex 1 0 0
      vertex 6.12323e-17 1 0
      vertex 6.12323e-17 1 5
    endloop
  endfacet
  facet normal 0.707107 0.707107 -0
    outer loop
      vertex 1 0 0
      vertex 6.12323e-17 1 5
      vertex 1 0 5
    endloop
  endfacet
  facet normal -0.707107 0.707107 0
    outer loop
      vertex 6.12323e-17 1 0
      vertex -1 1.22465e-16 0
      vertex -1 1.22465e-16 5
    endloop
  endfacet
  facet normal -0.707107 0.707107 0
    outer loop
      vertex 6.12323e-17 1 0
      vertex -1 1.22465e-16 5
      vertex 6.12323e-17 1 5
    endloop
  endfacet
  facet normal -0.707107 -0.707107 0
    outer loop
      vertex -1 1.22465e-16 0
      vertex -1.83697e-16 -1 0
      vertex -1.83697e-16 -1 5
    endloop
  endfacet
  facet normal -0.707107 -0.707107 0
    outer loop
      vertex -1 1.22465e-16 0
      vertex -1.83697e-16 -1 5
      vertex -1 1.22465e-16 5
    endloop
  endfacet
  facet normal 0.707107 -0.707107 0
    outer loop
      vertex -1.83697e-16 -1 0
      vertex 1 -2.44929e-16 0
      vertex 1 -2.44929e-16 5
    endloop
  endfacet
  facet normal 0.707107 -0.707107 0
    outer loop
      vertex -1.83697e-16 -1 0
      vertex 1 -2.44929e-16 5
      vertex -1.83697e-16 -1 5
    endloop
  endfacet
  facet normal 0 0 1
    outer loop
      vertex 0 0 5
      vertex 1 0 5
      vertex 6.12323e-17 1 5
    endloop
  endfacet
  facet normal 0 0 1
    outer loop
      vertex 0 0 5
      vertex 6.12323e-17 1 5
      vertex -1 1.22465e-16 5
    endloop
  endfacet
  facet normal 0 0 1
    outer loop
      vertex 0 0 5
      vertex -1 1.22465e-16 5
      vertex -1.83697e-16 -1 5
    endloop
  endfacet
  facet normal 0 0 1
    outer loop
      vertex 0 0 5
      vertex -1.83697e-16 -1 5
      vertex 1 -2.44929e-16 5
    endloop
  endfacet
endsolid prism
