solid prism
  facet normal 0 0 -1
    outer loop
      vertex -0.5 0.866025 0
      vertex 1 0 0
      vertex 0 0 0
    endloop
  endfacet
  facet normal 0 0 -1
    outer loop
      vertex -0.5 -0.866025 0
      vertex -0.5 0.866025 0
      vertex 0 0 0
    endloop
  endfacet
  facet normal 0 0 -1
    outer loop
      vertex 1 -2.44929e-16 0
      vertex -0.5 -0.866025 0
      vertex 0 0 0
    endloop
  endfacet
  facet normal 0.5 0.866025 0
    outer loop
      vertex 1 0 0
      vertex -0.5 0.866025 0
      vertex -0.5 0.866025 5
    endloop
  endfacet
  facet normal 0.5 0.866025 -0
    outer loop
      vertex 1 0 0
      vertex -0.5 0.866025 5
      vertex 1 0 5
    endloop
  endfacet
  facet normal -1 3.84593e-16 0
    outer loop
      vertex -0.5 0.866025 0
      vertex -0.5 -0.866025 0
      vertex -0.5 -0.866025 5
    endloop
  endfacet
  facet normal -1 3.84593e-16 0
    outer loop
      vertex -0.5 0.866025 0
      vertex -0.5 -0.866025 5
      vertex -0.5 0.866025 5
    endloop
  endfacet
  facet normal 0.5 -0.866025 0
    outer loop
      vertex -0.5 -0.866025 0
      vertex 1 -2.44929e-16 0
      vertex 1 -2.44929e-16 5
    endloop
  endfacet
  facet normal 0.5 -0.866025 0
    outer loop
      vertex -0.5 -0.866025 0
      vertex 1 -2.44929e-16 5
      vertex -0.5 -0.866025 5
    endloop
  endfacet
  facet normal 0 0 1
    outer loop
      vertex 0 0 5
      vertex 1 0 5
      vertex -0.5 0.866025 5
    endloop
  endfacet
  facet normal 0 0 1
    outer loop
      vertex 0 0 5
      vertex -0.5 0.866025 5
      vertex -0.5 -0.866025 5
    endloop
  endfacet
  facet normal 0 0 1
    outer loop
      vertex 0 0 5
      vertex -0.5 -0.866025 5
      vertex 1 -2.44929e-16 5
    endloop
  endfacet
endsolid prism
