solid sphere
  facet normal 0.0392439 0.0285123 0.998823
    outer loop
      vertex 0 0 1
      vertex 0.0784591 0 0.996917
      vertex 0.0242452 0.074619 0.996917
    endloop
  endfacet
  facet normal nan nan nan
    outer loop
      vertex 0 0 1
      vertex 0.0242452 0.074619 0.996917
      vertex 0 0 1
    endloop
  endfacet
  facet normal -0.0149898 0.0461339 0.998823
    outer loop
      vertex 0 0 1
      vertex 0.0242452 0.074619 0.996917
      vertex -0.0634747 0.0461171 0.996917
    endloop
  endfacet
  facet normal nan nan nan
    outer loop
      vertex 0 0 1
      vertex -0.0634747 0.0461171 0.996917
      vertex -0 0 1
    endloop
  endfacet
  facet normal -0.0485081 9.2486e-18 0.998823
    outer loop
      vertex -0 0 1
      vertex -0.0634747 0.0461171 0.996917
      vertex -0.0634747 -0.0461171 0.996917
    endloop
  endfacet
  facet normal nan nan nan
    outer loop
      vertex -0 0 1
      vertex -0.0634747 -0.0461171 0.996917
      vertex -0 -0 1
    endloop
  endfacet
  facet normal -0.0149898 -0.0461339 0.998823
    outer loop
      vertex -0 -0 1
      vertex -0.0634747 -0.0461171 0.996917
      vertex 0.0242452 -0.074619 0.996917
    endloop
  endfacet
  facet normal nan nan nan
    outer loop
      vertex -0 -0 1
      vertex 0.0242452 -0.074619 0.996917
      vertex 0 -0 1
    endloop
  endfacet
  facet normal 0.0392439 -0.0285123 0.998823
    outer loop
      vertex 0 -0 1
      vertex 0.0242452 -0.074619 0.996917
      vertex 0.0784591 -1.92169e-17 0.996917
    endloop
  endfacet
  facet normal nan nan nan
    outer loop
      vertex 0 -0 1
      vertex 0.0784591 -1.92169e-17 0.996917
      vertex 0 -0 1
    endloop
  endfacet
  facet normal 0.117111 0.0850862 0.989467
    outer loop
      vertex 0.0784591 0 0.996917
      vertex 0.156434 0 0.987688
      vertex 0.0483409 0.148778 0.987688
    endloop
  endfacet
  facet normal 0.117111 0.0850862 0.989467
    outer loop
      vertex 0.0784591 0 0.996917
      vertex 0.0483409 0.148778 0.987688
      vertex 0.0242452 0.074619 0.996917
    endloop
  endfacet
  facet normal -0.0447325 0.137672 0.989467
    outer loop
      vertex 0.0242452 0.074619 0.996917
      vertex 0.0483409 0.148778 0.987688
      vertex -0.126558 0.0919499 0.987688
    endloop
  endfacet
  facet normal -0.0447325 0.137672 0.989467
    outer loop
      vertex 0.0242452 0.074619 0.996917
      vertex -0.126558 0.0919499 0.987688
      vertex -0.0634747 0.0461171 0.996917
    endloop
  endfacet
  facet normal -0.144757 1.84946e-17 0.989467
    outer loop
      vertex -0.0634747 0.0461171 0.996917
      vertex -0.126558 0.0919499 0.987688
      vertex -0.126558 -0.0919499 0.987688
    endloop
  endfacet
  facet normal -0.144757 2.17806e-17 0.989467
    outer loop
      vertex -0.0634747 0.0461171 0.996917
      vertex -0.126558 -0.0919499 0.987688
      vertex -0.0634747 -0.0461171 0.996917
    endloop
  endfacet
  facet normal -0.0447325 -0.137672 0.989467
    outer loop
      vertex -0.0634747 -0.0461171 0.996917
      vertex -0.126558 -0.0919499 0.987688
      vertex 0.0483409 -0.148778 0.987688
    endloop
  endfacet
  facet normal -0.0447325 -0.137672 0.989467
    outer loop
      vertex -0.0634747 -0.0461171 0.996917
      vertex 0.0483409 -0.148778 0.987688
      vertex 0.0242452 -0.074619 0.996917
    endloop
  endfacet
  facet normal 0.117111 -0.0850862 0.989467
    outer loop
      vertex 0.0242452 -0.074619 0.996917
      vertex 0.0483409 -0.148778 0.987688
      vertex 0.156434 -3.83154e-17 0.987688
    endloop
  endfacet
  facet normal 0.117111 -0.0850862 0.989467
    outer loop
      vertex 0.0242452 -0.074619 0.996917
      vertex 0.156434 -3.83154e-17 0.987688
      vertex 0.0784591 -1.92169e-17 0.996917
    endloop
  endfacet
  facet normal 0.19316 0.140339 0.971079
    outer loop
      vertex 0.156434 0 0.987688
      vertex 0.233445 0 0.97237
      vertex 0.0721386 0.22202 0.97237
    endloop
  endfacet
  facet normal 0.19316 0.140339 0.971079
    outer loop
      vertex 0.156434 0 0.987688
      vertex 0.0721386 0.22202 0.97237
      vertex 0.0483409 0.148778 0.987688
    endloop
  endfacet
  facet normal -0.0737804 0.227073 0.971079
    outer loop
      vertex 0.0483409 0.148778 0.987688
      vertex 0.0721386 0.22202 0.97237
      vertex -0.188861 0.137216 0.97237
    endloop
  endfacet
  facet normal -0.0737804 0.227073 0.971079
    outer loop
      vertex 0.0483409 0.148778 0.987688
      vertex -0.188861 0.137216 0.97237
      vertex -0.126558 0.0919499 0.987688
    endloop
  endfacet
  facet normal -0.238758 2.46309e-17 0.971079
    outer loop
      vertex -0.126558 0.0919499 0.987688
      vertex -0.188861 0.137216 0.97237
      vertex -0.188861 -0.137216 0.97237
    endloop
  endfacet
  facet normal -0.238758 3.60353e-17 0.971079
    outer loop
      vertex -0.126558 0.0919499 0.987688
      vertex -0.188861 -0.137216 0.97237
      vertex -0.126558 -0.0919499 0.987688
    endloop
  endfacet
  facet normal -0.0737804 -0.227073 0.971079
    outer loop
      vertex -0.126558 -0.0919499 0.987688
      vertex -0.188861 -0.137216 0.97237
      vertex 0.0721386 -0.22202 0.97237
    endloop
  endfacet
  facet normal -0.0737804 -0.227073 0.971079
    outer loop
      vertex -0.126558 -0.0919499 0.987688
      vertex 0.0721386 -0.22202 0.97237
      vertex 0.0483409 -0.148778 0.987688
    endloop
  endfacet
  facet normal 0.19316 -0.140339 0.971079
    outer loop
      vertex 0.0483409 -0.148778 0.987688
      vertex 0.0721386 -0.22202 0.97237
      vertex 0.233445 -5.71776e-17 0.97237
    endloop
  endfacet
  facet normal 0.19316 -0.140339 0.971079
    outer loop
      vertex 0.0483409 -0.148778 0.987688
      vertex 0.233445 -5.71776e-17 0.97237
      vertex 0.156434 -3.83154e-17 0.987688
    endloop
  endfacet
  facet normal 0.266311 0.193486 0.944268
    outer loop
      vertex 0.233445 0 0.97237
      vertex 0.309017 0 0.951057
      vertex 0.0954915 0.293893 0.951057
    endloop
  endfacet
  facet normal 0.266311 0.193486 0.944268
    outer loop
      vertex 0.233445 0 0.97237
      vertex 0.0954915 0.293893 0.951057
      vertex 0.0721386 0.22202 0.97237
    endloop
  endfacet
  facet normal -0.101722 0.313067 0.944268
    outer loop
      vertex 0.0721386 0.22202 0.97237
      vertex 0.0954915 0.293893 0.951057
      vertex -0.25 0.181636 0.951057
    endloop
  endfacet
  facet normal -0.101722 0.313067 0.944268
    outer loop
      vertex 0.0721386 0.22202 0.97237
      vertex -0.25 0.181636 0.951057
      vertex -0.188861 0.137216 0.97237
    endloop
  endfacet
  facet normal -0.329179 2.76573e-17 0.944268
    outer loop
      vertex -0.188861 0.137216 0.97237
      vertex -0.25 0.181636 0.951057
      vertex -0.25 -0.181636 0.951057
    endloop
  endfacet
  facet normal -0.329179 3.32926e-17 0.944268
    outer loop
      vertex -0.188861 0.137216 0.97237
      vertex -0.25 -0.181636 0.951057
      vertex -0.188861 -0.137216 0.97237
    endloop
  endfacet
  facet normal -0.101722 -0.313067 0.944268
    outer loop
      vertex -0.188861 -0.137216 0.97237
      vertex -0.25 -0.181636 0.951057
      vertex 0.0954915 -0.293893 0.951057
    endloop
  endfacet
  facet normal -0.101722 -0.313067 0.944268
    outer loop
      vertex -0.188861 -0.137216 0.97237
      vertex 0.0954915 -0.293893 0.951057
      vertex 0.0721386 -0.22202 0.97237
    endloop
  endfacet
  facet normal 0.266311 -0.193486 0.944268
    outer loop
      vertex 0.0721386 -0.22202 0.97237
      vertex 0.0954915 -0.293893 0.951057
      vertex 0.309017 -7.56873e-17 0.951057
    endloop
  endfacet
  facet normal 0.266311 -0.193486 0.944268
    outer loop
      vertex 0.0721386 -0.22202 0.97237
      vertex 0.309017 -7.56873e-17 0.951057
      vertex 0.233445 -5.71776e-17 0.97237
    endloop
  endfacet
  facet normal 0.335667 0.243876 0.909864
    outer loop
      vertex 0.309017 0 0.951057
      vertex 0.382683 0 0.92388
      vertex 0.118256 0.363954 0.92388
    endloop
  endfacet
  facet normal 0.335667 0.243876 0.909864
    outer loop
      vertex 0.309017 0 0.951057
      vertex 0.118256 0.363954 0.92388
      vertex 0.0954915 0.293893 0.951057
    endloop
  endfacet
  facet normal -0.128213 0.3946 0.909864
    outer loop
      vertex 0.0954915 0.293893 0.951057
      vertex 0.118256 0.363954 0.92388
      vertex -0.309597 0.224936 0.92388
    endloop
  endfacet
  facet normal -0.128213 0.3946 0.909864
    outer loop
      vertex 0.0954915 0.293893 0.951057
      vertex -0.309597 0.224936 0.92388
      vertex -0.25 0.181636 0.951057
    endloop
  endfacet
  facet normal -0.414907 5.15109e-17 0.909864
    outer loop
      vertex -0.25 0.181636 0.951057
      vertex -0.309597 0.224936 0.92388
      vertex -0.309597 -0.224936 0.92388
    endloop
  endfacet
  facet normal -0.414907 3.17008e-17 0.909864
    outer loop
      vertex -0.25 0.181636 0.951057
      vertex -0.309597 -0.224936 0.92388
      vertex -0.25 -0.181636 0.951057
    endloop
  endfacet
  facet normal -0.128213 -0.3946 0.909864
    outer loop
      vertex -0.25 -0.181636 0.951057
      vertex -0.309597 -0.224936 0.92388
      vertex 0.118256 -0.363954 0.92388
    endloop
  endfacet
  facet normal -0.128213 -0.3946 0.909864
    outer loop
      vertex -0.25 -0.181636 0.951057
      vertex 0.118256 -0.363954 0.92388
      vertex 0.0954915 -0.293893 0.951057
    endloop
  endfacet
  facet normal 0.335667 -0.243876 0.909864
    outer loop
      vertex 0.0954915 -0.293893 0.951057
      vertex 0.118256 -0.363954 0.92388
      vertex 0.382683 -9.37304e-17 0.92388
    endloop
  endfacet
  facet normal 0.335667 -0.243876 0.909864
    outer loop
      vertex 0.0954915 -0.293893 0.951057
      vertex 0.382683 -9.37304e-17 0.92388
      vertex 0.309017 -7.56873e-17 0.951057
    endloop
  endfacet
  facet normal 0.40054 0.291009 0.868839
    outer loop
      vertex 0.382683 0 0.92388
      vertex 0.45399 0 0.891007
      vertex 0.140291 0.431771 0.891007
    endloop
  endfacet
  facet normal 0.40054 0.291009 0.868839
    outer loop
      vertex 0.382683 0 0.92388
      vertex 0.140291 0.431771 0.891007
      vertex 0.118256 0.363954 0.92388
    endloop
  endfacet
  facet normal -0.152993 0.470863 0.868839
    outer loop
      vertex 0.118256 0.363954 0.92388
      vertex 0.140291 0.431771 0.891007
      vertex -0.367286 0.266849 0.891007
    endloop
  endfacet
  facet normal -0.152993 0.470863 0.868839
    outer loop
      vertex 0.118256 0.363954 0.92388
      vertex -0.367286 0.266849 0.891007
      vertex -0.309597 0.224936 0.92388
    endloop
  endfacet
  facet normal -0.495095 4.89535e-17 0.868839
    outer loop
      vertex -0.309597 0.224936 0.92388
      vertex -0.367286 0.266849 0.891007
      vertex -0.367286 -0.266849 0.891007
    endloop
  endfacet
  facet normal -0.495095 6.10914e-17 0.868839
    outer loop
      vertex -0.309597 0.224936 0.92388
      vertex -0.367286 -0.266849 0.891007
      vertex -0.309597 -0.224936 0.92388
    endloop
  endfacet
  facet normal -0.152993 -0.470863 0.868839
    outer loop
      vertex -0.309597 -0.224936 0.92388
      vertex -0.367286 -0.266849 0.891007
      vertex 0.140291 -0.431771 0.891007
    endloop
  endfacet
  facet normal -0.152993 -0.470863 0.868839
    outer loop
      vertex -0.309597 -0.224936 0.92388
      vertex 0.140291 -0.431771 0.891007
      vertex 0.118256 -0.363954 0.92388
    endloop
  endfacet
  facet normal 0.40054 -0.291009 0.868839
    outer loop
      vertex 0.118256 -0.363954 0.92388
      vertex 0.140291 -0.431771 0.891007
      vertex 0.45399 -1.11196e-16 0.891007
    endloop
  endfacet
  facet normal 0.40054 -0.291009 0.868839
    outer loop
      vertex 0.118256 -0.363954 0.92388
      vertex 0.45399 -1.11196e-16 0.891007
      vertex 0.382683 -9.37304e-17 0.92388
    endloop
  endfacet
  facet normal 0.460466 0.334548 0.822222
    outer loop
      vertex 0.45399 0 0.891007
      vertex 0.522499 0 0.85264
      vertex 0.161461 0.496926 0.85264
    endloop
  endfacet
  facet normal 0.460466 0.334548 0.822222
    outer loop
      vertex 0.45399 0 0.891007
      vertex 0.161461 0.496926 0.85264
      vertex 0.140291 0.431771 0.891007
    endloop
  endfacet
  facet normal -0.175882 0.54131 0.822222
    outer loop
      vertex 0.140291 0.431771 0.891007
      vertex 0.161461 0.496926 0.85264
      vertex -0.42271 0.307117 0.85264
    endloop
  endfacet
  facet normal -0.175882 0.54131 0.822222
    outer loop
      vertex 0.140291 0.431771 0.891007
      vertex -0.42271 0.307117 0.85264
      vertex -0.367286 0.266849 0.891007
    endloop
  endfacet
  facet normal -0.569168 5.23716e-17 0.822222
    outer loop
      vertex -0.367286 0.266849 0.891007
      vertex -0.42271 0.307117 0.85264
      vertex -0.42271 -0.307117 0.85264
    endloop
  endfacet
  facet normal -0.569168 5.92004e-17 0.822222
    outer loop
      vertex -0.367286 0.266849 0.891007
      vertex -0.42271 -0.307117 0.85264
      vertex -0.367286 -0.266849 0.891007
    endloop
  endfacet
  facet normal -0.175882 -0.54131 0.822222
    outer loop
      vertex -0.367286 -0.266849 0.891007
      vertex -0.42271 -0.307117 0.85264
      vertex 0.161461 -0.496926 0.85264
    endloop
  endfacet
  facet normal -0.175882 -0.54131 0.822222
    outer loop
      vertex -0.367286 -0.266849 0.891007
      vertex 0.161461 -0.496926 0.85264
      vertex 0.140291 -0.431771 0.891007
    endloop
  endfacet
  facet normal 0.460466 -0.334548 0.822222
    outer loop
      vertex 0.140291 -0.431771 0.891007
      vertex 0.161461 -0.496926 0.85264
      vertex 0.522499 -1.27975e-16 0.85264
    endloop
  endfacet
  facet normal 0.460466 -0.334548 0.822222
    outer loop
      vertex 0.140291 -0.431771 0.891007
      vertex 0.522499 -1.27975e-16 0.85264
      vertex 0.45399 -1.11196e-16 0.891007
    endloop
  endfacet
  facet normal 0.515184 0.374303 0.771027
    outer loop
      vertex 0.522499 0 0.85264
      vertex 0.587785 0 0.809017
      vertex 0.181636 0.559017 0.809017
    endloop
  endfacet
  facet normal 0.515184 0.374303 0.771027
    outer loop
      vertex 0.522499 0 0.85264
      vertex 0.181636 0.559017 0.809017
      vertex 0.161461 0.496926 0.85264
    endloop
  endfacet
  facet normal -0.196783 0.605635 0.771027
    outer loop
      vertex 0.161461 0.496926 0.85264
      vertex 0.181636 0.559017 0.809017
      vertex -0.475528 0.345492 0.809017
    endloop
  endfacet
  facet normal -0.196783 0.605635 0.771027
    outer loop
      vertex 0.161461 0.496926 0.85264
      vertex -0.475528 0.345492 0.809017
      vertex -0.42271 0.307117 0.85264
    endloop
  endfacet
  facet normal -0.636802 4.581e-17 0.771027
    outer loop
      vertex -0.42271 0.307117 0.85264
      vertex -0.475528 0.345492 0.809017
      vertex -0.475528 -0.345492 0.809017
    endloop
  endfacet
  facet normal -0.636802 5.75508e-17 0.771027
    outer loop
      vertex -0.42271 0.307117 0.85264
      vertex -0.475528 -0.345492 0.809017
      vertex -0.42271 -0.307117 0.85264
    endloop
  endfacet
  facet normal -0.196783 -0.605635 0.771027
    outer loop
      vertex -0.42271 -0.307117 0.85264
      vertex -0.475528 -0.345492 0.809017
      vertex 0.181636 -0.559017 0.809017
    endloop
  endfacet
  facet normal -0.196783 -0.605635 0.771027
    outer loop
      vertex -0.42271 -0.307117 0.85264
      vertex 0.181636 -0.559017 0.809017
      vertex 0.161461 -0.496926 0.85264
    endloop
  endfacet
  facet normal 0.515184 -0.374303 0.771027
    outer loop
      vertex 0.161461 -0.496926 0.85264
      vertex 0.181636 -0.559017 0.809017
      vertex 0.587785 -1.43966e-16 0.809017
    endloop
  endfacet
  facet normal 0.515184 -0.374303 0.771027
    outer loop
      vertex 0.161461 -0.496926 0.85264
      vertex 0.587785 -1.43966e-16 0.809017
      vertex 0.522499 -1.27975e-16 0.85264
    endloop
  endfacet
  facet normal 0.564608 0.410212 0.716202
    outer loop
      vertex 0.587785 0 0.809017
      vertex 0.649448 0 0.760406
      vertex 0.20069 0.617662 0.760406
    endloop
  endfacet
  facet normal 0.564608 0.410212 0.716202
    outer loop
      vertex 0.587785 0 0.809017
      vertex 0.20069 0.617662 0.760406
      vertex 0.181636 0.559017 0.809017
    endloop
  endfacet
  facet normal -0.215661 0.663736 0.716202
    outer loop
      vertex 0.181636 0.559017 0.809017
      vertex 0.20069 0.617662 0.760406
      vertex -0.525415 0.381736 0.760406
    endloop
  endfacet
  facet normal -0.215661 0.663736 0.716202
    outer loop
      vertex 0.181636 0.559017 0.809017
      vertex -0.525415 0.381736 0.760406
      vertex -0.475528 0.345492 0.809017
    endloop
  endfacet
  facet normal -0.697894 9.78617e-17 0.716202
    outer loop
      vertex -0.475528 0.345492 0.809017
      vertex -0.525415 0.381736 0.760406
      vertex -0.525415 -0.381736 0.760406
    endloop
  endfacet
  facet normal -0.697894 5.60663e-17 0.716202
    outer loop
      vertex -0.475528 0.345492 0.809017
      vertex -0.525415 -0.381736 0.760406
      vertex -0.475528 -0.345492 0.809017
    endloop
  endfacet
  facet normal -0.215661 -0.663736 0.716202
    outer loop
      vertex -0.475528 -0.345492 0.809017
      vertex -0.525415 -0.381736 0.760406
      vertex 0.20069 -0.617662 0.760406
    endloop
  endfacet
  facet normal -0.215661 -0.663736 0.716202
    outer loop
      vertex -0.475528 -0.345492 0.809017
      vertex 0.20069 -0.617662 0.760406
      vertex 0.181636 -0.559017 0.809017
    endloop
  endfacet
  facet normal 0.564608 -0.410212 0.716202
    outer loop
      vertex 0.181636 -0.559017 0.809017
      vertex 0.20069 -0.617662 0.760406
      vertex 0.649448 -1.59069e-16 0.760406
    endloop
  endfacet
  facet normal 0.564608 -0.410212 0.716202
    outer loop
      vertex 0.181636 -0.559017 0.809017
      vertex 0.649448 -1.59069e-16 0.760406
      vertex 0.587785 -1.43966e-16 0.809017
    endloop
  endfacet
  facet normal 0.60879 0.442312 0.658585
    outer loop
      vertex 0.649448 0 0.760406
      vertex 0.707107 0 0.707107
      vertex 0.218508 0.672499 0.707107
    endloop
  endfacet
  facet normal 0.60879 0.442312 0.658585
    outer loop
      vertex 0.649448 0 0.760406
      vertex 0.218508 0.672499 0.707107
      vertex 0.20069 0.617662 0.760406
    endloop
  endfacet
  facet normal -0.232537 0.715676 0.658585
    outer loop
      vertex 0.20069 0.617662 0.760406
      vertex 0.218508 0.672499 0.707107
      vertex -0.572061 0.415627 0.707107
    endloop
  endfacet
  facet normal -0.232537 0.715676 0.658585
    outer loop
      vertex 0.20069 0.617662 0.760406
      vertex -0.572061 0.415627 0.707107
      vertex -0.525415 0.381736 0.760406
    endloop
  endfacet
  facet normal -0.752506 1.03123e-16 0.658585
    outer loop
      vertex -0.525415 0.381736 0.760406
      vertex -0.572061 0.415627 0.707107
      vertex -0.572061 -0.415627 0.707107
    endloop
  endfacet
  facet normal -0.752506 1.09428e-16 0.658585
    outer loop
      vertex -0.525415 0.381736 0.760406
      vertex -0.572061 -0.415627 0.707107
      vertex -0.525415 -0.381736 0.760406
    endloop
  endfacet
  facet normal -0.232537 -0.715676 0.658585
    outer loop
      vertex -0.525415 -0.381736 0.760406
      vertex -0.572061 -0.415627 0.707107
      vertex 0.218508 -0.672499 0.707107
    endloop
  endfacet
  facet normal -0.232537 -0.715676 0.658585
    outer loop
      vertex -0.525415 -0.381736 0.760406
      vertex 0.218508 -0.672499 0.707107
      vertex 0.20069 -0.617662 0.760406
    endloop
  endfacet
  facet normal 0.60879 -0.442312 0.658585
    outer loop
      vertex 0.20069 -0.617662 0.760406
      vertex 0.218508 -0.672499 0.707107
      vertex 0.707107 -1.73191e-16 0.707107
    endloop
  endfacet
  facet normal 0.60879 -0.442312 0.658585
    outer loop
      vertex 0.20069 -0.617662 0.760406
      vertex 0.707107 -1.73191e-16 0.707107
      vertex 0.649448 -1.59069e-16 0.760406
    endloop
  endfacet
  facet normal 0.647882 0.470714 0.598896
    outer loop
      vertex 0.707107 0 0.707107
      vertex 0.760406 0 0.649448
      vertex 0.234978 0.723189 0.649448
    endloop
  endfacet
  facet normal 0.647882 0.470714 0.598896
    outer loop
      vertex 0.707107 0 0.707107
      vertex 0.234978 0.723189 0.649448
      vertex 0.218508 0.672499 0.707107
    endloop
  endfacet
  facet normal -0.247469 0.761631 0.598896
    outer loop
      vertex 0.218508 0.672499 0.707107
      vertex 0.234978 0.723189 0.649448
      vertex -0.615181 0.446955 0.649448
    endloop
  endfacet
  facet normal -0.247469 0.761631 0.598896
    outer loop
      vertex 0.218508 0.672499 0.707107
      vertex -0.615181 0.446955 0.649448
      vertex -0.572061 0.415627 0.707107
    endloop
  endfacet
  facet normal -0.800827 0 0.598896
    outer loop
      vertex -0.572061 0.415627 0.707107
      vertex -0.615181 0.446955 0.649448
      vertex -0.615181 -0.446955 0.649448
    endloop
  endfacet
  facet normal -0.800827 1.06958e-16 0.598896
    outer loop
      vertex -0.572061 0.415627 0.707107
      vertex -0.615181 -0.446955 0.649448
      vertex -0.572061 -0.415627 0.707107
    endloop
  endfacet
  facet normal -0.247469 -0.761631 0.598896
    outer loop
      vertex -0.572061 -0.415627 0.707107
      vertex -0.615181 -0.446955 0.649448
      vertex 0.234978 -0.723189 0.649448
    endloop
  endfacet
  facet normal -0.247469 -0.761631 0.598896
    outer loop
      vertex -0.572061 -0.415627 0.707107
      vertex 0.234978 -0.723189 0.649448
      vertex 0.218508 -0.672499 0.707107
    endloop
  endfacet
  facet normal 0.647882 -0.470714 0.598896
    outer loop
      vertex 0.218508 -0.672499 0.707107
      vertex 0.234978 -0.723189 0.649448
      vertex 0.760406 -1.86246e-16 0.649448
    endloop
  endfacet
  facet normal 0.647882 -0.470714 0.598896
    outer loop
      vertex 0.218508 -0.672499 0.707107
      vertex 0.760406 -1.86246e-16 0.649448
      vertex 0.707107 -1.73191e-16 0.707107
    endloop
  endfacet
  facet normal 0.682099 0.495574 0.537724
    outer loop
      vertex 0.760406 0 0.649448
      vertex 0.809017 0 0.587785
      vertex 0.25 0.769421 0.587785
    endloop
  endfacet
  facet normal 0.682099 0.495574 0.537724
    outer loop
      vertex 0.760406 0 0.649448
      vertex 0.25 0.769421 0.587785
      vertex 0.234978 0.723189 0.649448
    endloop
  endfacet
  facet normal -0.260539 0.801856 0.537724
    outer loop
      vertex 0.234978 0.723189 0.649448
      vertex 0.25 0.769421 0.587785
      vertex -0.654508 0.475528 0.587785
    endloop
  endfacet
  facet normal -0.260539 0.801856 0.537724
    outer loop
      vertex 0.234978 0.723189 0.649448
      vertex -0.654508 0.475528 0.587785
      vertex -0.615181 0.446955 0.649448
    endloop
  endfacet
  facet normal -0.843121 9.97587e-17 0.537724
    outer loop
      vertex -0.615181 0.446955 0.649448
      vertex -0.654508 0.475528 0.587785
      vertex -0.654508 -0.475528 0.587785
    endloop
  endfacet
  facet normal -0.843121 0 0.537724
    outer loop
      vertex -0.615181 0.446955 0.649448
      vertex -0.654508 -0.475528 0.587785
      vertex -0.615181 -0.446955 0.649448
    endloop
  endfacet
  facet normal -0.260539 -0.801856 0.537724
    outer loop
      vertex -0.615181 -0.446955 0.649448
      vertex -0.654508 -0.475528 0.587785
      vertex 0.25 -0.769421 0.587785
    endloop
  endfacet
  facet normal -0.260539 -0.801856 0.537724
    outer loop
      vertex -0.615181 -0.446955 0.649448
      vertex 0.25 -0.769421 0.587785
      vertex 0.234978 -0.723189 0.649448
    endloop
  endfacet
  facet normal 0.682099 -0.495574 0.537724
    outer loop
      vertex 0.234978 -0.723189 0.649448
      vertex 0.25 -0.769421 0.587785
      vertex 0.809017 -1.98152e-16 0.587785
    endloop
  endfacet
  facet normal 0.682099 -0.495574 0.537724
    outer loop
      vertex 0.234978 -0.723189 0.649448
      vertex 0.809017 -1.98152e-16 0.587785
      vertex 0.760406 -1.86246e-16 0.649448
    endloop
  endfacet
  facet normal 0.711689 0.517073 0.475536
    outer loop
      vertex 0.809017 0 0.587785
      vertex 0.85264 0 0.522499
      vertex 0.26348 0.810909 0.522499
    endloop
  endfacet
  facet normal 0.711689 0.517073 0.475536
    outer loop
      vertex 0.809017 0 0.587785
      vertex 0.26348 0.810909 0.522499
      vertex 0.25 0.769421 0.587785
    endloop
  endfacet
  facet normal -0.271841 0.836641 0.475536
    outer loop
      vertex 0.25 0.769421 0.587785
      vertex 0.26348 0.810909 0.522499
      vertex -0.6898 0.501169 0.522499
    endloop
  endfacet
  facet normal -0.271841 0.836641 0.475536
    outer loop
      vertex 0.25 0.769421 0.587785
      vertex -0.6898 0.501169 0.522499
      vertex -0.654508 0.475528 0.587785
    endloop
  endfacet
  facet normal -0.879696 9.9109e-17 0.475536
    outer loop
      vertex -0.654508 0.475528 0.587785
      vertex -0.6898 0.501169 0.522499
      vertex -0.6898 -0.501169 0.522499
    endloop
  endfacet
  facet normal -0.879696 1.02692e-16 0.475536
    outer loop
      vertex -0.654508 0.475528 0.587785
      vertex -0.6898 -0.501169 0.522499
      vertex -0.654508 -0.475528 0.587785
    endloop
  endfacet
  facet normal -0.271841 -0.836641 0.475536
    outer loop
      vertex -0.654508 -0.475528 0.587785
      vertex -0.6898 -0.501169 0.522499
      vertex 0.26348 -0.810909 0.522499
    endloop
  endfacet
  facet normal -0.271841 -0.836641 0.475536
    outer loop
      vertex -0.654508 -0.475528 0.587785
      vertex 0.26348 -0.810909 0.522499
      vertex 0.25 -0.769421 0.587785
    endloop
  endfacet
  facet normal 0.711689 -0.517073 0.475536
    outer loop
      vertex 0.25 -0.769421 0.587785
      vertex 0.26348 -0.810909 0.522499
      vertex 0.85264 -2.08837e-16 0.522499
    endloop
  endfacet
  facet normal 0.711689 -0.517073 0.475536
    outer loop
      vertex 0.25 -0.769421 0.587785
      vertex 0.85264 -2.08837e-16 0.522499
      vertex 0.809017 -1.98152e-16 0.587785
    endloop
  endfacet
  facet normal 0.736911 0.535397 0.41269
    outer loop
      vertex 0.85264 0 0.522499
      vertex 0.891007 0 0.45399
      vertex 0.275336 0.847398 0.45399
    endloop
  endfacet
  facet normal 0.736911 0.535397 0.41269
    outer loop
      vertex 0.85264 0 0.522499
      vertex 0.275336 0.847398 0.45399
      vertex 0.26348 0.810909 0.522499
    endloop
  endfacet
  facet normal -0.281475 0.86629 0.41269
    outer loop
      vertex 0.26348 0.810909 0.522499
      vertex 0.275336 0.847398 0.45399
      vertex -0.720839 0.52372 0.45399
    endloop
  endfacet
  facet normal -0.281475 0.86629 0.41269
    outer loop
      vertex 0.26348 0.810909 0.522499
      vertex -0.720839 0.52372 0.45399
      vertex -0.6898 0.501169 0.522499
    endloop
  endfacet
  facet normal -0.910872 9.90897e-17 0.41269
    outer loop
      vertex -0.6898 0.501169 0.522499
      vertex -0.720839 0.52372 0.45399
      vertex -0.720839 -0.52372 0.45399
    endloop
  endfacet
  facet normal -0.910872 1.00891e-16 0.41269
    outer loop
      vertex -0.6898 0.501169 0.522499
      vertex -0.720839 -0.52372 0.45399
      vertex -0.6898 -0.501169 0.522499
    endloop
  endfacet
  facet normal -0.281475 -0.86629 0.41269
    outer loop
      vertex -0.6898 -0.501169 0.522499
      vertex -0.720839 -0.52372 0.45399
      vertex 0.275336 -0.847398 0.45399
    endloop
  endfacet
  facet normal -0.281475 -0.86629 0.41269
    outer loop
      vertex -0.6898 -0.501169 0.522499
      vertex 0.275336 -0.847398 0.45399
      vertex 0.26348 -0.810909 0.522499
    endloop
  endfacet
  facet normal 0.736911 -0.535397 0.41269
    outer loop
      vertex 0.26348 -0.810909 0.522499
      vertex 0.275336 -0.847398 0.45399
      vertex 0.891007 -2.18234e-16 0.45399
    endloop
  endfacet
  facet normal 0.736911 -0.535397 0.41269
    outer loop
      vertex 0.26348 -0.810909 0.522499
      vertex 0.891007 -2.18234e-16 0.45399
      vertex 0.85264 -2.08837e-16 0.522499
    endloop
  endfacet
  facet normal 0.758013 0.550729 0.349449
    outer loop
      vertex 0.891007 0 0.45399
      vertex 0.92388 0 0.382683
      vertex 0.285494 0.878662 0.382683
    endloop
  endfacet
  facet normal 0.758013 0.550729 0.349449
    outer loop
      vertex 0.891007 0 0.45399
      vertex 0.285494 0.878662 0.382683
      vertex 0.275336 0.847398 0.45399
    endloop
  endfacet
  facet normal -0.289535 0.891098 0.349449
    outer loop
      vertex 0.275336 0.847398 0.45399
      vertex 0.285494 0.878662 0.382683
      vertex -0.747434 0.543043 0.382683
    endloop
  endfacet
  facet normal -0.289535 0.891098 0.349449
    outer loop
      vertex 0.275336 0.847398 0.45399
      vertex -0.747434 0.543043 0.382683
      vertex -0.720839 0.52372 0.45399
    endloop
  endfacet
  facet normal -0.936955 9.4442e-17 0.349449
    outer loop
      vertex -0.720839 0.52372 0.45399
      vertex -0.747434 0.543043 0.382683
      vertex -0.747434 -0.543043 0.382683
    endloop
  endfacet
  facet normal -0.936955 9.93115e-17 0.349449
    outer loop
      vertex -0.720839 0.52372 0.45399
      vertex -0.747434 -0.543043 0.382683
      vertex -0.720839 -0.52372 0.45399
    endloop
  endfacet
  facet normal -0.289535 -0.891098 0.349449
    outer loop
      vertex -0.720839 -0.52372 0.45399
      vertex -0.747434 -0.543043 0.382683
      vertex 0.285494 -0.878662 0.382683
    endloop
  endfacet
  facet normal -0.289535 -0.891098 0.349449
    outer loop
      vertex -0.720839 -0.52372 0.45399
      vertex 0.285494 -0.878662 0.382683
      vertex 0.275336 -0.847398 0.45399
    endloop
  endfacet
  facet normal 0.758013 -0.550729 0.349449
    outer loop
      vertex 0.275336 -0.847398 0.45399
      vertex 0.285494 -0.878662 0.382683
      vertex 0.92388 -2.26285e-16 0.382683
    endloop
  endfacet
  facet normal 0.758013 -0.550729 0.349449
    outer loop
      vertex 0.275336 -0.847398 0.45399
      vertex 0.92388 -2.26285e-16 0.382683
      vertex 0.891007 -2.18234e-16 0.45399
    endloop
  endfacet
  facet normal 0.775225 0.563234 0.285996
    outer loop
      vertex 0.92388 0 0.382683
      vertex 0.951057 0 0.309017
      vertex 0.293893 0.904508 0.309017
    endloop
  endfacet
  facet normal 0.775225 0.563234 0.285996
    outer loop
      vertex 0.92388 0 0.382683
      vertex 0.293893 0.904508 0.309017
      vertex 0.285494 0.878662 0.382683
    endloop
  endfacet
  facet normal -0.29611 0.911332 0.285996
    outer loop
      vertex 0.285494 0.878662 0.382683
      vertex 0.293893 0.904508 0.309017
      vertex -0.769421 0.559017 0.309017
    endloop
  endfacet
  facet normal -0.29611 0.911332 0.285996
    outer loop
      vertex 0.285494 0.878662 0.382683
      vertex -0.769421 0.559017 0.309017
      vertex -0.747434 0.543043 0.382683
    endloop
  endfacet
  facet normal -0.958231 9.33442e-17 0.285996
    outer loop
      vertex -0.747434 0.543043 0.382683
      vertex -0.769421 0.559017 0.309017
      vertex -0.769421 -0.559017 0.309017
    endloop
  endfacet
  facet normal -0.958231 9.79527e-17 0.285996
    outer loop
      vertex -0.747434 0.543043 0.382683
      vertex -0.769421 -0.559017 0.309017
      vertex -0.747434 -0.543043 0.382683
    endloop
  endfacet
  facet normal -0.29611 -0.911332 0.285996
    outer loop
      vertex -0.747434 -0.543043 0.382683
      vertex -0.769421 -0.559017 0.309017
      vertex 0.293893 -0.904508 0.309017
    endloop
  endfacet
  facet normal -0.29611 -0.911332 0.285996
    outer loop
      vertex -0.747434 -0.543043 0.382683
      vertex 0.293893 -0.904508 0.309017
      vertex 0.285494 -0.878662 0.382683
    endloop
  endfacet
  facet normal 0.775225 -0.563234 0.285996
    outer loop
      vertex 0.285494 -0.878662 0.382683
      vertex 0.293893 -0.904508 0.309017
      vertex 0.951057 -2.32942e-16 0.309017
    endloop
  endfacet
  facet normal 0.775225 -0.563234 0.285996
    outer loop
      vertex 0.285494 -0.878662 0.382683
      vertex 0.951057 -2.32942e-16 0.309017
      vertex 0.92388 -2.26285e-16 0.382683
    endloop
  endfacet
  facet normal 0.788746 0.573058 0.22245
    outer loop
      vertex 0.951057 0 0.309017
      vertex 0.97237 0 0.233445
      vertex 0.300479 0.924779 0.233445
    endloop
  endfacet
  facet normal 0.788746 0.573058 0.22245
    outer loop
      vertex 0.951057 0 0.309017
      vertex 0.300479 0.924779 0.233445
      vertex 0.293893 0.904508 0.309017
    endloop
  endfacet
  facet normal -0.301274 0.927227 0.22245
    outer loop
      vertex 0.293893 0.904508 0.309017
      vertex 0.300479 0.924779 0.233445
      vertex -0.786664 0.571545 0.233445
    endloop
  endfacet
  facet normal -0.301274 0.927227 0.22245
    outer loop
      vertex 0.293893 0.904508 0.309017
      vertex -0.786664 0.571545 0.233445
      vertex -0.769421 0.559017 0.309017
    endloop
  endfacet
  facet normal -0.974944 9.54433e-17 0.22245
    outer loop
      vertex -0.769421 0.559017 0.309017
      vertex -0.786664 0.571545 0.233445
      vertex -0.786664 -0.571545 0.233445
    endloop
  endfacet
  facet normal -0.974944 9.68133e-17 0.22245
    outer loop
      vertex -0.769421 0.559017 0.309017
      vertex -0.786664 -0.571545 0.233445
      vertex -0.769421 -0.559017 0.309017
    endloop
  endfacet
  facet normal -0.301274 -0.927227 0.22245
    outer loop
      vertex -0.769421 -0.559017 0.309017
      vertex -0.786664 -0.571545 0.233445
      vertex 0.300479 -0.924779 0.233445
    endloop
  endfacet
  facet normal -0.301274 -0.927227 0.22245
    outer loop
      vertex -0.769421 -0.559017 0.309017
      vertex 0.300479 -0.924779 0.233445
      vertex 0.293893 -0.904508 0.309017
    endloop
  endfacet
  facet normal 0.788746 -0.573058 0.22245
    outer loop
      vertex 0.293893 -0.904508 0.309017
      vertex 0.300479 -0.924779 0.233445
      vertex 0.97237 -2.38162e-16 0.233445
    endloop
  endfacet
  facet normal 0.788746 -0.573058 0.22245
    outer loop
      vertex 0.293893 -0.904508 0.309017
      vertex 0.97237 -2.38162e-16 0.233445
      vertex 0.951057 -2.32942e-16 0.309017
    endloop
  endfacet
  facet normal 0.798741 0.580319 0.158879
    outer loop
      vertex 0.97237 0 0.233445
      vertex 0.987688 0 0.156434
      vertex 0.305212 0.939347 0.156434
    endloop
  endfacet
  facet normal 0.798741 0.580319 0.158879
    outer loop
      vertex 0.97237 0 0.233445
      vertex 0.305212 0.939347 0.156434
      vertex 0.300479 0.924779 0.233445
    endloop
  endfacet
  facet normal -0.305092 0.938976 0.158879
    outer loop
      vertex 0.300479 0.924779 0.233445
      vertex 0.305212 0.939347 0.156434
      vertex -0.799057 0.580549 0.156434
    endloop
  endfacet
  facet normal -0.305092 0.938976 0.158879
    outer loop
      vertex 0.300479 0.924779 0.233445
      vertex -0.799057 0.580549 0.156434
      vertex -0.786664 0.571545 0.233445
    endloop
  endfacet
  facet normal -0.987298 9.45725e-17 0.158879
    outer loop
      vertex -0.786664 0.571545 0.233445
      vertex -0.799057 0.580549 0.156434
      vertex -0.799057 -0.580549 0.156434
    endloop
  endfacet
  facet normal -0.987298 9.58911e-17 0.158879
    outer loop
      vertex -0.786664 0.571545 0.233445
      vertex -0.799057 -0.580549 0.156434
      vertex -0.786664 -0.571545 0.233445
    endloop
  endfacet
  facet normal -0.305092 -0.938976 0.158879
    outer loop
      vertex -0.786664 -0.571545 0.233445
      vertex -0.799057 -0.580549 0.156434
      vertex 0.305212 -0.939347 0.156434
    endloop
  endfacet
  facet normal -0.305092 -0.938976 0.158879
    outer loop
      vertex -0.786664 -0.571545 0.233445
      vertex 0.305212 -0.939347 0.156434
      vertex 0.300479 -0.924779 0.233445
    endloop
  endfacet
  facet normal 0.798741 -0.580319 0.158879
    outer loop
      vertex 0.300479 -0.924779 0.233445
      vertex 0.305212 -0.939347 0.156434
      vertex 0.987688 -2.41914e-16 0.156434
    endloop
  endfacet
  facet normal 0.798741 -0.580319 0.158879
    outer loop
      vertex 0.300479 -0.924779 0.233445
      vertex 0.987688 -2.41914e-16 0.156434
      vertex 0.97237 -2.38162e-16 0.233445
    endloop
  endfacet
  facet normal 0.805333 0.585109 0.0953175
    outer loop
      vertex 0.987688 0 0.156434
      vertex 0.996917 0 0.0784591
      vertex 0.308064 0.948125 0.0784591
    endloop
  endfacet
  facet normal 0.805333 0.585109 0.0953175
    outer loop
      vertex 0.987688 0 0.156434
      vertex 0.308064 0.948125 0.0784591
      vertex 0.305212 0.939347 0.156434
    endloop
  endfacet
  facet normal -0.30761 0.946726 0.0953175
    outer loop
      vertex 0.305212 0.939347 0.156434
      vertex 0.308064 0.948125 0.0784591
      vertex -0.806523 0.585973 0.0784591
    endloop
  endfacet
  facet normal -0.30761 0.946726 0.0953175
    outer loop
      vertex 0.305212 0.939347 0.156434
      vertex -0.806523 0.585973 0.0784591
      vertex -0.799057 0.580549 0.156434
    endloop
  endfacet
  facet normal -0.995447 9.44829e-17 0.0953175
    outer loop
      vertex -0.799057 0.580549 0.156434
      vertex -0.806523 0.585973 0.0784591
      vertex -0.806523 -0.585973 0.0784591
    endloop
  endfacet
  facet normal -0.995447 9.51831e-17 0.0953175
    outer loop
      vertex -0.799057 0.580549 0.156434
      vertex -0.806523 -0.585973 0.0784591
      vertex -0.799057 -0.580549 0.156434
    endloop
  endfacet
  facet normal -0.30761 -0.946726 0.0953175
    outer loop
      vertex -0.799057 -0.580549 0.156434
      vertex -0.806523 -0.585973 0.0784591
      vertex 0.308064 -0.948125 0.0784591
    endloop
  endfacet
  facet normal -0.30761 -0.946726 0.0953175
    outer loop
      vertex -0.799057 -0.580549 0.156434
      vertex 0.308064 -0.948125 0.0784591
      vertex 0.305212 -0.939347 0.156434
    endloop
  endfacet
  facet normal 0.805333 -0.585109 0.0953175
    outer loop
      vertex 0.305212 -0.939347 0.156434
      vertex 0.308064 -0.948125 0.0784591
      vertex 0.996917 -2.44174e-16 0.0784591
    endloop
  endfacet
  facet normal 0.805333 -0.585109 0.0953175
    outer loop
      vertex 0.305212 -0.939347 0.156434
      vertex 0.996917 -2.44174e-16 0.0784591
      vertex 0.987688 -2.41914e-16 0.156434
    endloop
  endfacet
  facet normal 0.808609 0.587489 0.0317703
    outer loop
      vertex 0.996917 0 0.0784591
      vertex 1 0 6.12323e-17
      vertex 0.309017 0.951057 6.12323e-17
    endloop
  endfacet
  facet normal 0.808609 0.587489 0.0317703
    outer loop
      vertex 0.996917 0 0.0784591
      vertex 0.309017 0.951057 6.12323e-17
      vertex 0.308064 0.948125 0.0784591
    endloop
  endfacet
  facet normal -0.308861 0.950576 0.0317703
    outer loop
      vertex 0.308064 0.948125 0.0784591
      vertex 0.309017 0.951057 6.12323e-17
      vertex -0.809017 0.587785 6.12323e-17
    endloop
  endfacet
  facet normal -0.308861 0.950576 0.0317703
    outer loop
      vertex 0.308064 0.948125 0.0784591
      vertex -0.809017 0.587785 6.12323e-17
      vertex -0.806523 0.585973 0.0784591
    endloop
  endfacet
  facet normal -0.999495 9.4579e-17 0.0317703
    outer loop
      vertex -0.806523 0.585973 0.0784591
      vertex -0.809017 0.587785 6.12323e-17
      vertex -0.809017 -0.587785 6.12323e-17
    endloop
  endfacet
  facet normal -0.999495 9.46854e-17 0.0317703
    outer loop
      vertex -0.806523 0.585973 0.0784591
      vertex -0.809017 -0.587785 6.12323e-17
      vertex -0.806523 -0.585973 0.0784591
    endloop
  endfacet
  facet normal -0.308861 -0.950576 0.0317703
    outer loop
      vertex -0.806523 -0.585973 0.0784591
      vertex -0.809017 -0.587785 6.12323e-17
      vertex 0.309017 -0.951057 6.12323e-17
    endloop
  endfacet
  facet normal -0.308861 -0.950576 0.0317703
    outer loop
      vertex -0.806523 -0.585973 0.0784591
      vertex 0.309017 -0.951057 6.12323e-17
      vertex 0.308064 -0.948125 0.0784591
    endloop
  endfacet
  facet normal 0.808609 -0.587489 0.0317703
    outer loop
      vertex 0.308064 -0.948125 0.0784591
      vertex 0.309017 -0.951057 6.12323e-17
      vertex 1 -2.44929e-16 6.12323e-17
    endloop
  endfacet
  facet normal 0.808609 -0.587489 0.0317703
    outer loop
      vertex 0.308064 -0.948125 0.0784591
      vertex 1 -2.44929e-16 6.12323e-17
      vertex 0.996917 -2.44174e-16 0.0784591
    endloop
  endfacet
  facet normal 0.808609 0.587489 -0.0317703
    outer loop
      vertex 1 0 6.12323e-17
      vertex 0.996917 0 -0.0784591
      vertex 0.308064 0.948125 -0.0784591
    endloop
  endfacet
  facet normal 0.808609 0.587489 -0.0317703
    outer loop
      vertex 1 0 6.12323e-17
      vertex 0.308064 0.948125 -0.0784591
      vertex 0.309017 0.951057 6.12323e-17
    endloop
  endfacet
  facet normal -0.308861 0.950576 -0.0317703
    outer loop
      vertex 0.309017 0.951057 6.12323e-17
      vertex 0.308064 0.948125 -0.0784591
      vertex -0.806523 0.585973 -0.0784591
    endloop
  endfacet
  facet normal -0.308861 0.950576 -0.0317703
    outer loop
      vertex 0.309017 0.951057 6.12323e-17
      vertex -0.806523 0.585973 -0.0784591
      vertex -0.809017 0.587785 6.12323e-17
    endloop
  endfacet
  facet normal -0.999495 9.45769e-17 -0.0317703
    outer loop
      vertex -0.809017 0.587785 6.12323e-17
      vertex -0.806523 0.585973 -0.0784591
      vertex -0.806523 -0.585973 -0.0784591
    endloop
  endfacet
  facet normal -0.999495 9.43935e-17 -0.0317703
    outer loop
      vertex -0.809017 0.587785 6.12323e-17
      vertex -0.806523 -0.585973 -0.0784591
      vertex -0.809017 -0.587785 6.12323e-17
    endloop
  endfacet
  facet normal -0.308861 -0.950576 -0.0317703
    outer loop
      vertex -0.809017 -0.587785 6.12323e-17
      vertex -0.806523 -0.585973 -0.0784591
      vertex 0.308064 -0.948125 -0.0784591
    endloop
  endfacet
  facet normal -0.308861 -0.950576 -0.0317703
    outer loop
      vertex -0.809017 -0.587785 6.12323e-17
      vertex 0.308064 -0.948125 -0.0784591
      vertex 0.309017 -0.951057 6.12323e-17
    endloop
  endfacet
  facet normal 0.808609 -0.587489 -0.0317703
    outer loop
      vertex 0.309017 -0.951057 6.12323e-17
      vertex 0.308064 -0.948125 -0.0784591
      vertex 0.996917 -2.44174e-16 -0.0784591
    endloop
  endfacet
  facet normal 0.808609 -0.587489 -0.0317703
    outer loop
      vertex 0.309017 -0.951057 6.12323e-17
      vertex 0.996917 -2.44174e-16 -0.0784591
      vertex 1 -2.44929e-16 6.12323e-17
    endloop
  endfacet
  facet normal 0.805333 0.585109 -0.0953175
    outer loop
      vertex 0.996917 0 -0.0784591
      vertex 0.987688 0 -0.156434
      vertex 0.305212 0.939347 -0.156434
    endloop
  endfacet
  facet normal 0.805333 0.585109 -0.0953175
    outer loop
      vertex 0.996917 0 -0.0784591
      vertex 0.305212 0.939347 -0.156434
      vertex 0.308064 0.948125 -0.0784591
    endloop
  endfacet
  facet normal -0.30761 0.946726 -0.0953175
    outer loop
      vertex 0.308064 0.948125 -0.0784591
      vertex 0.305212 0.939347 -0.156434
      vertex -0.799057 0.580549 -0.156434
    endloop
  endfacet
  facet normal -0.30761 0.946726 -0.0953175
    outer loop
      vertex 0.308064 0.948125 -0.0784591
      vertex -0.799057 0.580549 -0.156434
      vertex -0.806523 0.585973 -0.0784591
    endloop
  endfacet
  facet normal -0.995447 9.53657e-17 -0.0953175
    outer loop
      vertex -0.806523 0.585973 -0.0784591
      vertex -0.799057 0.580549 -0.156434
      vertex -0.799057 -0.580549 -0.156434
    endloop
  endfacet
  facet normal -0.995447 9.43019e-17 -0.0953175
    outer loop
      vertex -0.806523 0.585973 -0.0784591
      vertex -0.799057 -0.580549 -0.156434
      vertex -0.806523 -0.585973 -0.0784591
    endloop
  endfacet
  facet normal -0.30761 -0.946726 -0.0953175
    outer loop
      vertex -0.806523 -0.585973 -0.0784591
      vertex -0.799057 -0.580549 -0.156434
      vertex 0.305212 -0.939347 -0.156434
    endloop
  endfacet
  facet normal -0.30761 -0.946726 -0.0953175
    outer loop
      vertex -0.806523 -0.585973 -0.0784591
      vertex 0.305212 -0.939347 -0.156434
      vertex 0.308064 -0.948125 -0.0784591
    endloop
  endfacet
  facet normal 0.805333 -0.585109 -0.0953175
    outer loop
      vertex 0.308064 -0.948125 -0.0784591
      vertex 0.305212 -0.939347 -0.156434
      vertex 0.987688 -2.41914e-16 -0.156434
    endloop
  endfacet
  facet normal 0.805333 -0.585109 -0.0953175
    outer loop
      vertex 0.308064 -0.948125 -0.0784591
      vertex 0.987688 -2.41914e-16 -0.156434
      vertex 0.996917 -2.44174e-16 -0.0784591
    endloop
  endfacet
  facet normal 0.798741 0.580319 -0.158879
    outer loop
      vertex 0.987688 0 -0.156434
      vertex 0.97237 0 -0.233445
      vertex 0.300479 0.924779 -0.233445
    endloop
  endfacet
  facet normal 0.798741 0.580319 -0.158879
    outer loop
      vertex 0.987688 0 -0.156434
      vertex 0.300479 0.924779 -0.233445
      vertex 0.305212 0.939347 -0.156434
    endloop
  endfacet
  facet normal -0.305092 0.938976 -0.158879
    outer loop
      vertex 0.305212 0.939347 -0.156434
      vertex 0.300479 0.924779 -0.233445
      vertex -0.786664 0.571545 -0.233445
    endloop
  endfacet
  facet normal -0.305092 0.938976 -0.158879
    outer loop
      vertex 0.305212 0.939347 -0.156434
      vertex -0.786664 0.571545 -0.233445
      vertex -0.799057 0.580549 -0.156434
    endloop
  endfacet
  facet normal -0.987298 9.60624e-17 -0.158879
    outer loop
      vertex -0.799057 0.580549 -0.156434
      vertex -0.786664 0.571545 -0.233445
      vertex -0.786664 -0.571545 -0.233445
    endloop
  endfacet
  facet normal -0.987298 9.44039e-17 -0.158879
    outer loop
      vertex -0.799057 0.580549 -0.156434
      vertex -0.786664 -0.571545 -0.233445
      vertex -0.799057 -0.580549 -0.156434
    endloop
  endfacet
  facet normal -0.305092 -0.938976 -0.158879
    outer loop
      vertex -0.799057 -0.580549 -0.156434
      vertex -0.786664 -0.571545 -0.233445
      vertex 0.300479 -0.924779 -0.233445
    endloop
  endfacet
  facet normal -0.305092 -0.938976 -0.158879
    outer loop
      vertex -0.799057 -0.580549 -0.156434
      vertex 0.300479 -0.924779 -0.233445
      vertex 0.305212 -0.939347 -0.156434
    endloop
  endfacet
  facet normal 0.798741 -0.580319 -0.158879
    outer loop
      vertex 0.305212 -0.939347 -0.156434
      vertex 0.300479 -0.924779 -0.233445
      vertex 0.97237 -2.38162e-16 -0.233445
    endloop
  endfacet
  facet normal 0.798741 -0.580319 -0.158879
    outer loop
      vertex 0.305212 -0.939347 -0.156434
      vertex 0.97237 -2.38162e-16 -0.233445
      vertex 0.987688 -2.41914e-16 -0.156434
    endloop
  endfacet
  facet normal 0.788746 0.573058 -0.22245
    outer loop
      vertex 0.97237 0 -0.233445
      vertex 0.951057 0 -0.309017
      vertex 0.293893 0.904508 -0.309017
    endloop
  endfacet
  facet normal 0.788746 0.573058 -0.22245
    outer loop
      vertex 0.97237 0 -0.233445
      vertex 0.293893 0.904508 -0.309017
      vertex 0.300479 0.924779 -0.233445
    endloop
  endfacet
  facet normal -0.301274 0.927227 -0.22245
    outer loop
      vertex 0.300479 0.924779 -0.233445
      vertex 0.293893 0.904508 -0.309017
      vertex -0.769421 0.559017 -0.309017
    endloop
  endfacet
  facet normal -0.301274 0.927227 -0.22245
    outer loop
      vertex 0.300479 0.924779 -0.233445
      vertex -0.769421 0.559017 -0.309017
      vertex -0.786664 0.571545 -0.233445
    endloop
  endfacet
  facet normal -0.974944 9.75823e-17 -0.22245
    outer loop
      vertex -0.786664 0.571545 -0.233445
      vertex -0.769421 0.559017 -0.309017
      vertex -0.769421 -0.559017 -0.309017
    endloop
  endfacet
  facet normal -0.974944 9.46912e-17 -0.22245
    outer loop
      vertex -0.786664 0.571545 -0.233445
      vertex -0.769421 -0.559017 -0.309017
      vertex -0.786664 -0.571545 -0.233445
    endloop
  endfacet
  facet normal -0.301274 -0.927227 -0.22245
    outer loop
      vertex -0.786664 -0.571545 -0.233445
      vertex -0.769421 -0.559017 -0.309017
      vertex 0.293893 -0.904508 -0.309017
    endloop
  endfacet
  facet normal -0.301274 -0.927227 -0.22245
    outer loop
      vertex -0.786664 -0.571545 -0.233445
      vertex 0.293893 -0.904508 -0.309017
      vertex 0.300479 -0.924779 -0.233445
    endloop
  endfacet
  facet normal 0.788746 -0.573058 -0.22245
    outer loop
      vertex 0.300479 -0.924779 -0.233445
      vertex 0.293893 -0.904508 -0.309017
      vertex 0.951057 -2.32942e-16 -0.309017
    endloop
  endfacet
  facet normal 0.788746 -0.573058 -0.22245
    outer loop
      vertex 0.300479 -0.924779 -0.233445
      vertex 0.951057 -2.32942e-16 -0.309017
      vertex 0.97237 -2.38162e-16 -0.233445
    endloop
  endfacet
  facet normal 0.775225 0.563234 -0.285996
    outer loop
      vertex 0.951057 0 -0.309017
      vertex 0.92388 0 -0.382683
      vertex 0.285494 0.878662 -0.382683
    endloop
  endfacet
  facet normal 0.775225 0.563234 -0.285996
    outer loop
      vertex 0.951057 0 -0.309017
      vertex 0.285494 0.878662 -0.382683
      vertex 0.293893 0.904508 -0.309017
    endloop
  endfacet
  facet normal -0.29611 0.911332 -0.285996
    outer loop
      vertex 0.293893 0.904508 -0.309017
      vertex 0.285494 0.878662 -0.382683
      vertex -0.747434 0.543043 -0.382683
    endloop
  endfacet
  facet normal -0.29611 0.911332 -0.285996
    outer loop
      vertex 0.293893 0.904508 -0.309017
      vertex -0.747434 0.543043 -0.382683
      vertex -0.769421 0.559017 -0.309017
    endloop
  endfacet
  facet normal -0.958231 9.86871e-17 -0.285996
    outer loop
      vertex -0.769421 0.559017 -0.309017
      vertex -0.747434 0.543043 -0.382683
      vertex -0.747434 -0.543043 -0.382683
    endloop
  endfacet
  facet normal -0.958231 9.51536e-17 -0.285996
    outer loop
      vertex -0.769421 0.559017 -0.309017
      vertex -0.747434 -0.543043 -0.382683
      vertex -0.769421 -0.559017 -0.309017
    endloop
  endfacet
  facet normal -0.29611 -0.911332 -0.285996
    outer loop
      vertex -0.769421 -0.559017 -0.309017
      vertex -0.747434 -0.543043 -0.382683
      vertex 0.285494 -0.878662 -0.382683
    endloop
  endfacet
  facet normal -0.29611 -0.911332 -0.285996
    outer loop
      vertex -0.769421 -0.559017 -0.309017
      vertex 0.285494 -0.878662 -0.382683
      vertex 0.293893 -0.904508 -0.309017
    endloop
  endfacet
  facet normal 0.775225 -0.563234 -0.285996
    outer loop
      vertex 0.293893 -0.904508 -0.309017
      vertex 0.285494 -0.878662 -0.382683
      vertex 0.92388 -2.26285e-16 -0.382683
    endloop
  endfacet
  facet normal 0.775225 -0.563234 -0.285996
    outer loop
      vertex 0.293893 -0.904508 -0.309017
      vertex 0.92388 -2.26285e-16 -0.382683
      vertex 0.951057 -2.32942e-16 -0.309017
    endloop
  endfacet
  facet normal 0.758013 0.550729 -0.349449
    outer loop
      vertex 0.92388 0 -0.382683
      vertex 0.891007 0 -0.45399
      vertex 0.275336 0.847398 -0.45399
    endloop
  endfacet
  facet normal 0.758013 0.550729 -0.349449
    outer loop
      vertex 0.92388 0 -0.382683
      vertex 0.275336 0.847398 -0.45399
      vertex 0.285494 0.878662 -0.382683
    endloop
  endfacet
  facet normal -0.289535 0.891098 -0.349449
    outer loop
      vertex 0.285494 0.878662 -0.382683
      vertex 0.275336 0.847398 -0.45399
      vertex -0.720839 0.52372 -0.45399
    endloop
  endfacet
  facet normal -0.289535 0.891098 -0.349449
    outer loop
      vertex 0.285494 0.878662 -0.382683
      vertex -0.720839 0.52372 -0.45399
      vertex -0.747434 0.543043 -0.382683
    endloop
  endfacet
  facet normal -0.936955 0 -0.349449
    outer loop
      vertex -0.747434 0.543043 -0.382683
      vertex -0.720839 0.52372 -0.45399
      vertex -0.720839 -0.52372 -0.45399
    endloop
  endfacet
  facet normal -0.936955 9.57779e-17 -0.349449
    outer loop
      vertex -0.747434 0.543043 -0.382683
      vertex -0.720839 -0.52372 -0.45399
      vertex -0.747434 -0.543043 -0.382683
    endloop
  endfacet
  facet normal -0.289535 -0.891098 -0.349449
    outer loop
      vertex -0.747434 -0.543043 -0.382683
      vertex -0.720839 -0.52372 -0.45399
      vertex 0.275336 -0.847398 -0.45399
    endloop
  endfacet
  facet normal -0.289535 -0.891098 -0.349449
    outer loop
      vertex -0.747434 -0.543043 -0.382683
      vertex 0.275336 -0.847398 -0.45399
      vertex 0.285494 -0.878662 -0.382683
    endloop
  endfacet
  facet normal 0.758013 -0.550729 -0.349449
    outer loop
      vertex 0.285494 -0.878662 -0.382683
      vertex 0.275336 -0.847398 -0.45399
      vertex 0.891007 -2.18234e-16 -0.45399
    endloop
  endfacet
  facet normal 0.758013 -0.550729 -0.349449
    outer loop
      vertex 0.285494 -0.878662 -0.382683
      vertex 0.891007 -2.18234e-16 -0.45399
      vertex 0.92388 -2.26285e-16 -0.382683
    endloop
  endfacet
  facet normal 0.736911 0.535397 -0.41269
    outer loop
      vertex 0.891007 0 -0.45399
      vertex 0.85264 0 -0.522499
      vertex 0.26348 0.810909 -0.522499
    endloop
  endfacet
  facet normal 0.736911 0.535397 -0.41269
    outer loop
      vertex 0.891007 0 -0.45399
      vertex 0.26348 0.810909 -0.522499
      vertex 0.275336 0.847398 -0.45399
    endloop
  endfacet
  facet normal -0.281475 0.86629 -0.41269
    outer loop
      vertex 0.275336 0.847398 -0.45399
      vertex 0.26348 0.810909 -0.522499
      vertex -0.6898 0.501169 -0.522499
    endloop
  endfacet
  facet normal -0.281475 0.86629 -0.41269
    outer loop
      vertex 0.275336 0.847398 -0.45399
      vertex -0.6898 0.501169 -0.522499
      vertex -0.720839 0.52372 -0.45399
    endloop
  endfacet
  facet normal -0.910872 9.77958e-17 -0.41269
    outer loop
      vertex -0.720839 0.52372 -0.45399
      vertex -0.6898 0.501169 -0.522499
      vertex -0.6898 -0.501169 -0.522499
    endloop
  endfacet
  facet normal -0.910872 -0 -0.41269
    outer loop
      vertex -0.720839 0.52372 -0.45399
      vertex -0.6898 -0.501169 -0.522499
      vertex -0.720839 -0.52372 -0.45399
    endloop
  endfacet
  facet normal -0.281475 -0.86629 -0.41269
    outer loop
      vertex -0.720839 -0.52372 -0.45399
      vertex -0.6898 -0.501169 -0.522499
      vertex 0.26348 -0.810909 -0.522499
    endloop
  endfacet
  facet normal -0.281475 -0.86629 -0.41269
    outer loop
      vertex -0.720839 -0.52372 -0.45399
      vertex 0.26348 -0.810909 -0.522499
      vertex 0.275336 -0.847398 -0.45399
    endloop
  endfacet
  facet normal 0.736911 -0.535397 -0.41269
    outer loop
      vertex 0.275336 -0.847398 -0.45399
      vertex 0.26348 -0.810909 -0.522499
      vertex 0.85264 -2.08837e-16 -0.522499
    endloop
  endfacet
  facet normal 0.736911 -0.535397 -0.41269
    outer loop
      vertex 0.275336 -0.847398 -0.45399
      vertex 0.85264 -2.08837e-16 -0.522499
      vertex 0.891007 -2.18234e-16 -0.45399
    endloop
  endfacet
  facet normal 0.711689 0.517073 -0.475536
    outer loop
      vertex 0.85264 0 -0.522499
      vertex 0.809017 0 -0.587785
      vertex 0.25 0.769421 -0.587785
    endloop
  endfacet
  facet normal 0.711689 0.517073 -0.475536
    outer loop
      vertex 0.85264 0 -0.522499
      vertex 0.25 0.769421 -0.587785
      vertex 0.26348 0.810909 -0.522499
    endloop
  endfacet
  facet normal -0.271841 0.836641 -0.475536
    outer loop
      vertex 0.26348 0.810909 -0.522499
      vertex 0.25 0.769421 -0.587785
      vertex -0.654508 0.475528 -0.587785
    endloop
  endfacet
  facet normal -0.271841 0.836641 -0.475536
    outer loop
      vertex 0.26348 0.810909 -0.522499
      vertex -0.654508 0.475528 -0.587785
      vertex -0.6898 0.501169 -0.522499
    endloop
  endfacet
  facet normal -0.879696 1.04453e-16 -0.475536
    outer loop
      vertex -0.6898 0.501169 -0.522499
      vertex -0.654508 0.475528 -0.587785
      vertex -0.654508 -0.475528 -0.587785
    endloop
  endfacet
  facet normal -0.879696 9.74381e-17 -0.475536
    outer loop
      vertex -0.6898 0.501169 -0.522499
      vertex -0.654508 -0.475528 -0.587785
      vertex -0.6898 -0.501169 -0.522499
    endloop
  endfacet
  facet normal -0.271841 -0.836641 -0.475536
    outer loop
      vertex -0.6898 -0.501169 -0.522499
      vertex -0.654508 -0.475528 -0.587785
      vertex 0.25 -0.769421 -0.587785
    endloop
  endfacet
  facet normal -0.271841 -0.836641 -0.475536
    outer loop
      vertex -0.6898 -0.501169 -0.522499
      vertex 0.25 -0.769421 -0.587785
      vertex 0.26348 -0.810909 -0.522499
    endloop
  endfacet
  facet normal 0.711689 -0.517073 -0.475536
    outer loop
      vertex 0.26348 -0.810909 -0.522499
      vertex 0.25 -0.769421 -0.587785
      vertex 0.809017 -1.98152e-16 -0.587785
    endloop
  endfacet
  facet normal 0.711689 -0.517073 -0.475536
    outer loop
      vertex 0.26348 -0.810909 -0.522499
      vertex 0.809017 -1.98152e-16 -0.587785
      vertex 0.85264 -2.08837e-16 -0.522499
    endloop
  endfacet
  facet normal 0.682099 0.495574 -0.537724
    outer loop
      vertex 0.809017 0 -0.587785
      vertex 0.760406 0 -0.649448
      vertex 0.234978 0.723189 -0.649448
    endloop
  endfacet
  facet normal 0.682099 0.495574 -0.537724
    outer loop
      vertex 0.809017 0 -0.587785
      vertex 0.234978 0.723189 -0.649448
      vertex 0.25 0.769421 -0.587785
    endloop
  endfacet
  facet normal -0.260539 0.801856 -0.537724
    outer loop
      vertex 0.25 0.769421 -0.587785
      vertex 0.234978 0.723189 -0.649448
      vertex -0.615181 0.446955 -0.649448
    endloop
  endfacet
  facet normal -0.260539 0.801856 -0.537724
    outer loop
      vertex 0.25 0.769421 -0.587785
      vertex -0.615181 0.446955 -0.649448
      vertex -0.654508 0.475528 -0.587785
    endloop
  endfacet
  facet normal -0.843121 1.06136e-16 -0.537724
    outer loop
      vertex -0.654508 0.475528 -0.587785
      vertex -0.615181 0.446955 -0.649448
      vertex -0.615181 -0.446955 -0.649448
    endloop
  endfacet
  facet normal -0.843121 9.84224e-17 -0.537724
    outer loop
      vertex -0.654508 0.475528 -0.587785
      vertex -0.615181 -0.446955 -0.649448
      vertex -0.654508 -0.475528 -0.587785
    endloop
  endfacet
  facet normal -0.260539 -0.801856 -0.537724
    outer loop
      vertex -0.654508 -0.475528 -0.587785
      vertex -0.615181 -0.446955 -0.649448
      vertex 0.234978 -0.723189 -0.649448
    endloop
  endfacet
  facet normal -0.260539 -0.801856 -0.537724
    outer loop
      vertex -0.654508 -0.475528 -0.587785
      vertex 0.234978 -0.723189 -0.649448
      vertex 0.25 -0.769421 -0.587785
    endloop
  endfacet
  facet normal 0.682099 -0.495574 -0.537724
    outer loop
      vertex 0.25 -0.769421 -0.587785
      vertex 0.234978 -0.723189 -0.649448
      vertex 0.760406 -1.86246e-16 -0.649448
    endloop
  endfacet
  facet normal 0.682099 -0.495574 -0.537724
    outer loop
      vertex 0.25 -0.769421 -0.587785
      vertex 0.760406 -1.86246e-16 -0.649448
      vertex 0.809017 -1.98152e-16 -0.587785
    endloop
  endfacet
  facet normal 0.647882 0.470714 -0.598896
    outer loop
      vertex 0.760406 0 -0.649448
      vertex 0.707107 0 -0.707107
      vertex 0.218508 0.672499 -0.707107
    endloop
  endfacet
  facet normal 0.647882 0.470714 -0.598896
    outer loop
      vertex 0.760406 0 -0.649448
      vertex 0.218508 0.672499 -0.707107
      vertex 0.234978 0.723189 -0.649448
    endloop
  endfacet
  facet normal -0.247469 0.761631 -0.598896
    outer loop
      vertex 0.234978 0.723189 -0.649448
      vertex 0.218508 0.672499 -0.707107
      vertex -0.572061 0.415627 -0.707107
    endloop
  endfacet
  facet normal -0.247469 0.761631 -0.598896
    outer loop
      vertex 0.234978 0.723189 -0.649448
      vertex -0.572061 0.415627 -0.707107
      vertex -0.615181 0.446955 -0.649448
    endloop
  endfacet
  facet normal -0.800827 1.01447e-16 -0.598896
    outer loop
      vertex -0.615181 0.446955 -0.649448
      vertex -0.572061 0.415627 -0.707107
      vertex -0.572061 -0.415627 -0.707107
    endloop
  endfacet
  facet normal -0.800827 9.94614e-17 -0.598896
    outer loop
      vertex -0.615181 0.446955 -0.649448
      vertex -0.572061 -0.415627 -0.707107
      vertex -0.615181 -0.446955 -0.649448
    endloop
  endfacet
  facet normal -0.247469 -0.761631 -0.598896
    outer loop
      vertex -0.615181 -0.446955 -0.649448
      vertex -0.572061 -0.415627 -0.707107
      vertex 0.218508 -0.672499 -0.707107
    endloop
  endfacet
  facet normal -0.247469 -0.761631 -0.598896
    outer loop
      vertex -0.615181 -0.446955 -0.649448
      vertex 0.218508 -0.672499 -0.707107
      vertex 0.234978 -0.723189 -0.649448
    endloop
  endfacet
  facet normal 0.647882 -0.470714 -0.598896
    outer loop
      vertex 0.234978 -0.723189 -0.649448
      vertex 0.218508 -0.672499 -0.707107
      vertex 0.707107 -1.73191e-16 -0.707107
    endloop
  endfacet
  facet normal 0.647882 -0.470714 -0.598896
    outer loop
      vertex 0.234978 -0.723189 -0.649448
      vertex 0.707107 -1.73191e-16 -0.707107
      vertex 0.760406 -1.86246e-16 -0.649448
    endloop
  endfacet
  facet normal 0.60879 0.442312 -0.658585
    outer loop
      vertex 0.707107 0 -0.707107
      vertex 0.649448 0 -0.760406
      vertex 0.20069 0.617662 -0.760406
    endloop
  endfacet
  facet normal 0.60879 0.442312 -0.658585
    outer loop
      vertex 0.707107 0 -0.707107
      vertex 0.20069 0.617662 -0.760406
      vertex 0.218508 0.672499 -0.707107
    endloop
  endfacet
  facet normal -0.232537 0.715676 -0.658585
    outer loop
      vertex 0.218508 0.672499 -0.707107
      vertex 0.20069 0.617662 -0.760406
      vertex -0.525415 0.381736 -0.760406
    endloop
  endfacet
  facet normal -0.232537 0.715676 -0.658585
    outer loop
      vertex 0.218508 0.672499 -0.707107
      vertex -0.525415 0.381736 -0.760406
      vertex -0.572061 0.415627 -0.707107
    endloop
  endfacet
  facet normal -0.752506 1.12278e-16 -0.658585
    outer loop
      vertex -0.572061 0.415627 -0.707107
      vertex -0.525415 0.381736 -0.760406
      vertex -0.525415 -0.381736 -0.760406
    endloop
  endfacet
  facet normal -0.752506 1.00505e-16 -0.658585
    outer loop
      vertex -0.572061 0.415627 -0.707107
      vertex -0.525415 -0.381736 -0.760406
      vertex -0.572061 -0.415627 -0.707107
    endloop
  endfacet
  facet normal -0.232537 -0.715676 -0.658585
    outer loop
      vertex -0.572061 -0.415627 -0.707107
      vertex -0.525415 -0.381736 -0.760406
      vertex 0.20069 -0.617662 -0.760406
    endloop
  endfacet
  facet normal -0.232537 -0.715676 -0.658585
    outer loop
      vertex -0.572061 -0.415627 -0.707107
      vertex 0.20069 -0.617662 -0.760406
      vertex 0.218508 -0.672499 -0.707107
    endloop
  endfacet
  facet normal 0.60879 -0.442312 -0.658585
    outer loop
      vertex 0.218508 -0.672499 -0.707107
      vertex 0.20069 -0.617662 -0.760406
      vertex 0.649448 -1.59069e-16 -0.760406
    endloop
  endfacet
  facet normal 0.60879 -0.442312 -0.658585
    outer loop
      vertex 0.218508 -0.672499 -0.707107
      vertex 0.649448 -1.59069e-16 -0.760406
      vertex 0.707107 -1.73191e-16 -0.707107
    endloop
  endfacet
  facet normal 0.564608 0.410212 -0.716202
    outer loop
      vertex 0.649448 0 -0.760406
      vertex 0.587785 0 -0.809017
      vertex 0.181636 0.559017 -0.809017
    endloop
  endfacet
  facet normal 0.564608 0.410212 -0.716202
    outer loop
      vertex 0.649448 0 -0.760406
      vertex 0.181636 0.559017 -0.809017
      vertex 0.20069 0.617662 -0.760406
    endloop
  endfacet
  facet normal -0.215661 0.663736 -0.716202
    outer loop
      vertex 0.20069 0.617662 -0.760406
      vertex 0.181636 0.559017 -0.809017
      vertex -0.475528 0.345492 -0.809017
    endloop
  endfacet
  facet normal -0.215661 0.663736 -0.716202
    outer loop
      vertex 0.20069 0.617662 -0.760406
      vertex -0.475528 0.345492 -0.809017
      vertex -0.525415 0.381736 -0.760406
    endloop
  endfacet
  facet normal -0.697894 5.4064e-17 -0.716202
    outer loop
      vertex -0.525415 0.381736 -0.760406
      vertex -0.475528 0.345492 -0.809017
      vertex -0.475528 -0.345492 -0.809017
    endloop
  endfacet
  facet normal -0.697894 1.01486e-16 -0.716202
    outer loop
      vertex -0.525415 0.381736 -0.760406
      vertex -0.475528 -0.345492 -0.809017
      vertex -0.525415 -0.381736 -0.760406
    endloop
  endfacet
  facet normal -0.215661 -0.663736 -0.716202
    outer loop
      vertex -0.525415 -0.381736 -0.760406
      vertex -0.475528 -0.345492 -0.809017
      vertex 0.181636 -0.559017 -0.809017
    endloop
  endfacet
  facet normal -0.215661 -0.663736 -0.716202
    outer loop
      vertex -0.525415 -0.381736 -0.760406
      vertex 0.181636 -0.559017 -0.809017
      vertex 0.20069 -0.617662 -0.760406
    endloop
  endfacet
  facet normal 0.564608 -0.410212 -0.716202
    outer loop
      vertex 0.20069 -0.617662 -0.760406
      vertex 0.181636 -0.559017 -0.809017
      vertex 0.587785 -1.43966e-16 -0.809017
    endloop
  endfacet
  facet normal 0.564608 -0.410212 -0.716202
    outer loop
      vertex 0.20069 -0.617662 -0.760406
      vertex 0.587785 -1.43966e-16 -0.809017
      vertex 0.649448 -1.59069e-16 -0.760406
    endloop
  endfacet
  facet normal 0.515184 0.374303 -0.771027
    outer loop
      vertex 0.587785 0 -0.809017
      vertex 0.522499 0 -0.85264
      vertex 0.161461 0.496926 -0.85264
    endloop
  endfacet
  facet normal 0.515184 0.374303 -0.771027
    outer loop
      vertex 0.587785 0 -0.809017
      vertex 0.161461 0.496926 -0.85264
      vertex 0.181636 0.559017 -0.809017
    endloop
  endfacet
  facet normal -0.196783 0.605635 -0.771027
    outer loop
      vertex 0.181636 0.559017 -0.809017
      vertex 0.161461 0.496926 -0.85264
      vertex -0.42271 0.307117 -0.85264
    endloop
  endfacet
  facet normal -0.196783 0.605635 -0.771027
    outer loop
      vertex 0.181636 0.559017 -0.809017
      vertex -0.42271 0.307117 -0.85264
      vertex -0.475528 0.345492 -0.809017
    endloop
  endfacet
  facet normal -0.636802 5.1534e-17 -0.771027
    outer loop
      vertex -0.475528 0.345492 -0.809017
      vertex -0.42271 0.307117 -0.85264
      vertex -0.42271 -0.307117 -0.85264
    endloop
  endfacet
  facet normal -0.636802 5.11585e-17 -0.771027
    outer loop
      vertex -0.475528 0.345492 -0.809017
      vertex -0.42271 -0.307117 -0.85264
      vertex -0.475528 -0.345492 -0.809017
    endloop
  endfacet
  facet normal -0.196783 -0.605635 -0.771027
    outer loop
      vertex -0.475528 -0.345492 -0.809017
      vertex -0.42271 -0.307117 -0.85264
      vertex 0.161461 -0.496926 -0.85264
    endloop
  endfacet
  facet normal -0.196783 -0.605635 -0.771027
    outer loop
      vertex -0.475528 -0.345492 -0.809017
      vertex 0.161461 -0.496926 -0.85264
      vertex 0.181636 -0.559017 -0.809017
    endloop
  endfacet
  facet normal 0.515184 -0.374303 -0.771027
    outer loop
      vertex 0.181636 -0.559017 -0.809017
      vertex 0.161461 -0.496926 -0.85264
      vertex 0.522499 -1.27975e-16 -0.85264
    endloop
  endfacet
  facet normal 0.515184 -0.374303 -0.771027
    outer loop
      vertex 0.181636 -0.559017 -0.809017
      vertex 0.522499 -1.27975e-16 -0.85264
      vertex 0.587785 -1.43966e-16 -0.809017
    endloop
  endfacet
  facet normal 0.460466 0.334548 -0.822222
    outer loop
      vertex 0.522499 0 -0.85264
      vertex 0.45399 0 -0.891007
      vertex 0.140291 0.431771 -0.891007
    endloop
  endfacet
  facet normal 0.460466 0.334548 -0.822222
    outer loop
      vertex 0.522499 0 -0.85264
      vertex 0.140291 0.431771 -0.891007
      vertex 0.161461 0.496926 -0.85264
    endloop
  endfacet
  facet normal -0.175882 0.54131 -0.822222
    outer loop
      vertex 0.161461 0.496926 -0.85264
      vertex 0.140291 0.431771 -0.891007
      vertex -0.367286 0.266849 -0.891007
    endloop
  endfacet
  facet normal -0.175882 0.54131 -0.822222
    outer loop
      vertex 0.161461 0.496926 -0.85264
      vertex -0.367286 0.266849 -0.891007
      vertex -0.42271 0.307117 -0.85264
    endloop
  endfacet
  facet normal -0.569168 6.02746e-17 -0.822222
    outer loop
      vertex -0.42271 0.307117 -0.85264
      vertex -0.367286 0.266849 -0.891007
      vertex -0.367286 -0.266849 -0.891007
    endloop
  endfacet
  facet normal -0.569168 5.14383e-17 -0.822222
    outer loop
      vertex -0.42271 0.307117 -0.85264
      vertex -0.367286 -0.266849 -0.891007
      vertex -0.42271 -0.307117 -0.85264
    endloop
  endfacet
  facet normal -0.175882 -0.54131 -0.822222
    outer loop
      vertex -0.42271 -0.307117 -0.85264
      vertex -0.367286 -0.266849 -0.891007
      vertex 0.140291 -0.431771 -0.891007
    endloop
  endfacet
  facet normal -0.175882 -0.54131 -0.822222
    outer loop
      vertex -0.42271 -0.307117 -0.85264
      vertex 0.140291 -0.431771 -0.891007
      vertex 0.161461 -0.496926 -0.85264
    endloop
  endfacet
  facet normal 0.460466 -0.334548 -0.822222
    outer loop
      vertex 0.161461 -0.496926 -0.85264
      vertex 0.140291 -0.431771 -0.891007
      vertex 0.45399 -1.11196e-16 -0.891007
    endloop
  endfacet
  facet normal 0.460466 -0.334548 -0.822222
    outer loop
      vertex 0.161461 -0.496926 -0.85264
      vertex 0.45399 -1.11196e-16 -0.891007
      vertex 0.522499 -1.27975e-16 -0.85264
    endloop
  endfacet
  facet normal 0.40054 0.291009 -0.868839
    outer loop
      vertex 0.45399 0 -0.891007
      vertex 0.382683 0 -0.92388
      vertex 0.118256 0.363954 -0.92388
    endloop
  endfacet
  facet normal 0.40054 0.291009 -0.868839
    outer loop
      vertex 0.45399 0 -0.891007
      vertex 0.118256 0.363954 -0.92388
      vertex 0.140291 0.431771 -0.891007
    endloop
  endfacet
  facet normal -0.152993 0.470863 -0.868839
    outer loop
      vertex 0.140291 0.431771 -0.891007
      vertex 0.118256 0.363954 -0.92388
      vertex -0.309597 0.224936 -0.92388
    endloop
  endfacet
  facet normal -0.152993 0.470863 -0.868839
    outer loop
      vertex 0.140291 0.431771 -0.891007
      vertex -0.309597 0.224936 -0.92388
      vertex -0.367286 0.266849 -0.891007
    endloop
  endfacet
  facet normal -0.495095 0 -0.868839
    outer loop
      vertex -0.367286 0.266849 -0.891007
      vertex -0.309597 0.224936 -0.92388
      vertex -0.309597 -0.224936 -0.92388
    endloop
  endfacet
  facet normal -0.495095 5.1496e-17 -0.868839
    outer loop
      vertex -0.367286 0.266849 -0.891007
      vertex -0.309597 -0.224936 -0.92388
      vertex -0.367286 -0.266849 -0.891007
    endloop
  endfacet
  facet normal -0.152993 -0.470863 -0.868839
    outer loop
      vertex -0.367286 -0.266849 -0.891007
      vertex -0.309597 -0.224936 -0.92388
      vertex 0.118256 -0.363954 -0.92388
    endloop
  endfacet
  facet normal -0.152993 -0.470863 -0.868839
    outer loop
      vertex -0.367286 -0.266849 -0.891007
      vertex 0.118256 -0.363954 -0.92388
      vertex 0.140291 -0.431771 -0.891007
    endloop
  endfacet
  facet normal 0.40054 -0.291009 -0.868839
    outer loop
      vertex 0.140291 -0.431771 -0.891007
      vertex 0.118256 -0.363954 -0.92388
      vertex 0.382683 -9.37304e-17 -0.92388
    endloop
  endfacet
  facet normal 0.40054 -0.291009 -0.868839
    outer loop
      vertex 0.140291 -0.431771 -0.891007
      vertex 0.382683 -9.37304e-17 -0.92388
      vertex 0.45399 -1.11196e-16 -0.891007
    endloop
  endfacet
  facet normal 0.335667 0.243876 -0.909864
    outer loop
      vertex 0.382683 0 -0.92388
      vertex 0.309017 0 -0.951057
      vertex 0.0954915 0.293893 -0.951057
    endloop
  endfacet
  facet normal 0.335667 0.243876 -0.909864
    outer loop
      vertex 0.382683 0 -0.92388
      vertex 0.0954915 0.293893 -0.951057
      vertex 0.118256 0.363954 -0.92388
    endloop
  endfacet
  facet normal -0.128213 0.3946 -0.909864
    outer loop
      vertex 0.118256 0.363954 -0.92388
      vertex 0.0954915 0.293893 -0.951057
      vertex -0.25 0.181636 -0.951057
    endloop
  endfacet
  facet normal -0.128213 0.3946 -0.909864
    outer loop
      vertex 0.118256 0.363954 -0.92388
      vertex -0.25 0.181636 -0.951057
      vertex -0.309597 0.224936 -0.92388
    endloop
  endfacet
  facet normal -0.414907 0 -0.909864
    outer loop
      vertex -0.309597 0.224936 -0.92388
      vertex -0.25 0.181636 -0.951057
      vertex -0.25 -0.181636 -0.951057
    endloop
  endfacet
  facet normal -0.414907 -0 -0.909864
    outer loop
      vertex -0.309597 0.224936 -0.92388
      vertex -0.25 -0.181636 -0.951057
      vertex -0.309597 -0.224936 -0.92388
    endloop
  endfacet
  facet normal -0.128213 -0.3946 -0.909864
    outer loop
      vertex -0.309597 -0.224936 -0.92388
      vertex -0.25 -0.181636 -0.951057
      vertex 0.0954915 -0.293893 -0.951057
    endloop
  endfacet
  facet normal -0.128213 -0.3946 -0.909864
    outer loop
      vertex -0.309597 -0.224936 -0.92388
      vertex 0.0954915 -0.293893 -0.951057
      vertex 0.118256 -0.363954 -0.92388
    endloop
  endfacet
  facet normal 0.335667 -0.243876 -0.909864
    outer loop
      vertex 0.118256 -0.363954 -0.92388
      vertex 0.0954915 -0.293893 -0.951057
      vertex 0.309017 -7.56873e-17 -0.951057
    endloop
  endfacet
  facet normal 0.335667 -0.243876 -0.909864
    outer loop
      vertex 0.118256 -0.363954 -0.92388
      vertex 0.309017 -7.56873e-17 -0.951057
      vertex 0.382683 -9.37304e-17 -0.92388
    endloop
  endfacet
  facet normal 0.266311 0.193486 -0.944268
    outer loop
      vertex 0.309017 0 -0.951057
      vertex 0.233445 0 -0.97237
      vertex 0.0721386 0.22202 -0.97237
    endloop
  endfacet
  facet normal 0.266311 0.193486 -0.944268
    outer loop
      vertex 0.309017 0 -0.951057
      vertex 0.0721386 0.22202 -0.97237
      vertex 0.0954915 0.293893 -0.951057
    endloop
  endfacet
  facet normal -0.101722 0.313067 -0.944268
    outer loop
      vertex 0.0954915 0.293893 -0.951057
      vertex 0.0721386 0.22202 -0.97237
      vertex -0.188861 0.137216 -0.97237
    endloop
  endfacet
  facet normal -0.101722 0.313067 -0.944268
    outer loop
      vertex 0.0954915 0.293893 -0.951057
      vertex -0.188861 0.137216 -0.97237
      vertex -0.25 0.181636 -0.951057
    endloop
  endfacet
  facet normal -0.329179 2.4407e-17 -0.944268
    outer loop
      vertex -0.25 0.181636 -0.951057
      vertex -0.188861 0.137216 -0.97237
      vertex -0.188861 -0.137216 -0.97237
    endloop
  endfacet
  facet normal -0.329179 -0 -0.944268
    outer loop
      vertex -0.25 0.181636 -0.951057
      vertex -0.188861 -0.137216 -0.97237
      vertex -0.25 -0.181636 -0.951057
    endloop
  endfacet
  facet normal -0.101722 -0.313067 -0.944268
    outer loop
      vertex -0.25 -0.181636 -0.951057
      vertex -0.188861 -0.137216 -0.97237
      vertex 0.0721386 -0.22202 -0.97237
    endloop
  endfacet
  facet normal -0.101722 -0.313067 -0.944268
    outer loop
      vertex -0.25 -0.181636 -0.951057
      vertex 0.0721386 -0.22202 -0.97237
      vertex 0.0954915 -0.293893 -0.951057
    endloop
  endfacet
  facet normal 0.266311 -0.193486 -0.944268
    outer loop
      vertex 0.0954915 -0.293893 -0.951057
      vertex 0.0721386 -0.22202 -0.97237
      vertex 0.233445 -5.71776e-17 -0.97237
    endloop
  endfacet
  facet normal 0.266311 -0.193486 -0.944268
    outer loop
      vertex 0.0954915 -0.293893 -0.951057
      vertex 0.233445 -5.71776e-17 -0.97237
      vertex 0.309017 -7.56873e-17 -0.951057
    endloop
  endfacet
  facet normal 0.19316 0.140339 -0.971079
    outer loop
      vertex 0.233445 0 -0.97237
      vertex 0.156434 0 -0.987688
      vertex 0.0483409 0.148778 -0.987688
    endloop
  endfacet
  facet normal 0.19316 0.140339 -0.971079
    outer loop
      vertex 0.233445 0 -0.97237
      vertex 0.0483409 0.148778 -0.987688
      vertex 0.0721386 0.22202 -0.97237
    endloop
  endfacet
  facet normal -0.0737804 0.227073 -0.971079
    outer loop
      vertex 0.0721386 0.22202 -0.97237
      vertex 0.0483409 0.148778 -0.987688
      vertex -0.126558 0.0919499 -0.987688
    endloop
  endfacet
  facet normal -0.0737804 0.227073 -0.971079
    outer loop
      vertex 0.0721386 0.22202 -0.97237
      vertex -0.126558 0.0919499 -0.987688
      vertex -0.188861 0.137216 -0.97237
    endloop
  endfacet
  facet normal -0.238758 3.67565e-17 -0.971079
    outer loop
      vertex -0.188861 0.137216 -0.97237
      vertex -0.126558 0.0919499 -0.987688
      vertex -0.126558 -0.0919499 -0.987688
    endloop
  endfacet
  facet normal -0.238758 2.41477e-17 -0.971079
    outer loop
      vertex -0.188861 0.137216 -0.97237
      vertex -0.126558 -0.0919499 -0.987688
      vertex -0.188861 -0.137216 -0.97237
    endloop
  endfacet
  facet normal -0.0737804 -0.227073 -0.971079
    outer loop
      vertex -0.188861 -0.137216 -0.97237
      vertex -0.126558 -0.0919499 -0.987688
      vertex 0.0483409 -0.148778 -0.987688
    endloop
  endfacet
  facet normal -0.0737804 -0.227073 -0.971079
    outer loop
      vertex -0.188861 -0.137216 -0.97237
      vertex 0.0483409 -0.148778 -0.987688
      vertex 0.0721386 -0.22202 -0.97237
    endloop
  endfacet
  facet normal 0.19316 -0.140339 -0.971079
    outer loop
      vertex 0.0721386 -0.22202 -0.97237
      vertex 0.0483409 -0.148778 -0.987688
      vertex 0.156434 -3.83154e-17 -0.987688
    endloop
  endfacet
  facet normal 0.19316 -0.140339 -0.971079
    outer loop
      vertex 0.0721386 -0.22202 -0.97237
      vertex 0.156434 -3.83154e-17 -0.987688
      vertex 0.233445 -5.71776e-17 -0.97237
    endloop
  endfacet
  facet normal 0.117111 0.0850862 -0.989467
    outer loop
      vertex 0.156434 0 -0.987688
      vertex 0.0784591 0 -0.996917
      vertex 0.0242452 0.074619 -0.996917
    endloop
  endfacet
  facet normal 0.117111 0.0850862 -0.989467
    outer loop
      vertex 0.156434 0 -0.987688
      vertex 0.0242452 0.074619 -0.996917
      vertex 0.0483409 0.148778 -0.987688
    endloop
  endfacet
  facet normal -0.0447325 0.137672 -0.989467
    outer loop
      vertex 0.0483409 0.148778 -0.987688
      vertex 0.0242452 0.074619 -0.996917
      vertex -0.0634747 0.0461171 -0.996917
    endloop
  endfacet
  facet normal -0.0447325 0.137672 -0.989467
    outer loop
      vertex 0.0483409 0.148778 -0.987688
      vertex -0.0634747 0.0461171 -0.996917
      vertex -0.126558 0.0919499 -0.987688
    endloop
  endfacet
  facet normal -0.144757 1.84376e-17 -0.989467
    outer loop
      vertex -0.126558 0.0919499 -0.987688
      vertex -0.0634747 0.0461171 -0.996917
      vertex -0.0634747 -0.0461171 -0.996917
    endloop
  endfacet
  facet normal -0.144757 2.18479e-17 -0.989467
    outer loop
      vertex -0.126558 0.0919499 -0.987688
      vertex -0.0634747 -0.0461171 -0.996917
      vertex -0.126558 -0.0919499 -0.987688
    endloop
  endfacet
  facet normal -0.0447325 -0.137672 -0.989467
    outer loop
      vertex -0.126558 -0.0919499 -0.987688
      vertex -0.0634747 -0.0461171 -0.996917
      vertex 0.0242452 -0.074619 -0.996917
    endloop
  endfacet
  facet normal -0.0447325 -0.137672 -0.989467
    outer loop
      vertex -0.126558 -0.0919499 -0.987688
      vertex 0.0242452 -0.074619 -0.996917
      vertex 0.0483409 -0.148778 -0.987688
    endloop
  endfacet
  facet normal 0.117111 -0.0850862 -0.989467
    outer loop
      vertex 0.0483409 -0.148778 -0.987688
      vertex 0.0242452 -0.074619 -0.996917
      vertex 0.0784591 -1.92169e-17 -0.996917
    endloop
  endfacet
  facet normal 0.117111 -0.0850862 -0.989467
    outer loop
      vertex 0.0483409 -0.148778 -0.987688
      vertex 0.0784591 -1.92169e-17 -0.996917
      vertex 0.156434 -3.83154e-17 -0.987688
    endloop
  endfacet
  facet normal 0.0392459 0.0266651 -0.998874
    outer loop
      vertex 0.0784591 0 -0.996917
      vertex 1.22465e-16 0 -1
      vertex 3.78437e-17 1.16471e-16 -1
    endloop
  endfacet
  facet normal 0.0392439 0.0285123 -0.998823
    outer loop
      vertex 0.0784591 0 -0.996917
      vertex 3.78437e-17 1.16471e-16 -1
      vertex 0.0242452 0.074619 -0.996917
    endloop
  endfacet
  facet normal -0.0116153 0.0450094 -0.998919
    outer loop
      vertex 0.0242452 0.074619 -0.996917
      vertex 3.78437e-17 1.16471e-16 -1
      vertex -9.9076e-17 7.19829e-17 -1
    endloop
  endfacet
  facet normal -0.0149898 0.0461339 -0.998823
    outer loop
      vertex 0.0242452 0.074619 -0.996917
      vertex -9.9076e-17 7.19829e-17 -1
      vertex -0.0634747 0.0461171 -0.996917
    endloop
  endfacet
  facet normal -0.0475651 0 -0.998868
    outer loop
      vertex -0.0634747 0.0461171 -0.996917
      vertex -9.9076e-17 7.19829e-17 -1
      vertex -9.9076e-17 -7.19829e-17 -1
    endloop
  endfacet
  facet normal -0.0485081 7.29865e-18 -0.998823
    outer loop
      vertex -0.0634747 0.0461171 -0.996917
      vertex -9.9076e-17 -7.19829e-17 -1
      vertex -0.0634747 -0.0461171 -0.996917
    endloop
  endfacet
  facet normal -0.0170254 -0.0454011 -0.998824
    outer loop
      vertex -0.0634747 -0.0461171 -0.996917
      vertex -9.9076e-17 -7.19829e-17 -1
      vertex 3.78437e-17 -1.16471e-16 -1
    endloop
  endfacet
  facet normal -0.0149898 -0.0461339 -0.998823
    outer loop
      vertex -0.0634747 -0.0461171 -0.996917
      vertex 3.78437e-17 -1.16471e-16 -1
      vertex 0.0242452 -0.074619 -0.996917
    endloop
  endfacet
  facet normal 0.0395865 -0.0289286 -0.998797
    outer loop
      vertex 0.0242452 -0.074619 -0.996917
      vertex 3.78437e-17 -1.16471e-16 -1
      vertex 1.22465e-16 -2.99952e-32 -1
    endloop
  endfacet
  facet normal 0.0392439 -0.0285123 -0.998823
    outer loop
      vertex 0.0242452 -0.074619 -0.996917
      vertex 1.22465e-16 -2.99952e-32 -1
      vertex 0.0784591 -1.92169e-17 -0.996917
    endloop
  endfacet
endsolid sphere
